<svg width="20" height="20" viewBox="0 0 20 20" fill="none" xmlns="http://www.w3.org/2000/svg">
<path fill-rule="evenodd" clip-rule="evenodd" d="M4.16675 3.33332C3.70651 3.33332 3.33341 3.70642 3.33341 4.16666V15.8333C3.33341 16.2936 3.70651 16.6667 4.16675 16.6667H15.8334C16.2937 16.6667 16.6667 16.2936 16.6667 15.8333V4.16666C16.6667 3.70642 16.2937 3.33332 15.8334 3.33332H4.16675ZM1.66675 4.16666C1.66675 2.78594 2.78604 1.66666 4.16675 1.66666H15.8334C17.2141 1.66666 18.3334 2.78594 18.3334 4.16666V15.8333C18.3334 17.214 17.2141 18.3333 15.8334 18.3333H4.16675C2.78604 18.3333 1.66675 17.214 1.66675 15.8333V4.16666Z" fill="white"/>
</svg>
