<svg width="218" height="318" viewBox="0 0 218 318" fill="none" xmlns="http://www.w3.org/2000/svg">
<rect x="110.779" y="158.668" width="105.557" height="105.557" transform="rotate(90 110.779 158.668)" fill="#DACC86"/>
<path d="M5.22128 52.4461C19.1705 52.4461 32.983 55.1936 45.8704 60.5317C58.7578 65.8699 70.4675 73.6941 80.3311 83.5576C90.1946 93.4212 98.0188 105.131 103.357 118.018C108.695 130.906 111.443 144.718 111.443 158.667L5.22128 158.667L5.22128 52.4461Z" fill="#324173"/>
<path d="M5.22129 211.778C12.1959 211.778 19.1022 213.152 25.5458 215.821C31.9895 218.49 37.8444 222.402 42.7762 227.334C47.708 232.266 51.6201 238.121 54.2891 244.564C56.9582 251.008 58.3319 257.914 58.3319 264.889L5.22129 264.889L5.22129 211.778Z" fill="#475CA3"/>
<path d="M5.22129 318.001C12.1959 318.001 19.1022 316.627 25.5458 313.958C31.9895 311.289 37.8444 307.377 42.7762 302.445C47.708 297.513 51.6201 291.658 54.2891 285.215C56.9582 278.771 58.3319 271.865 58.3319 264.89L5.22129 264.89L5.22129 318.001Z" fill="#C7B349"/>
<path fill-rule="evenodd" clip-rule="evenodd" d="M-47.8893 158.668C-47.8893 129.335 -24.1108 105.557 5.22137 105.557C34.5536 105.557 58.332 129.335 58.332 158.668L31.7767 158.668C31.7765 144.002 19.8874 132.113 5.22141 132.113C-9.44455 132.113 -21.3337 144.002 -21.3339 158.668L-47.8893 158.668Z" fill="#C7B349"/>
<path fill-rule="evenodd" clip-rule="evenodd" d="M-47.8893 158.669C-47.8893 188.001 -24.1108 211.779 5.22136 211.779C34.5536 211.779 58.332 188.001 58.332 158.669L31.7767 158.669C31.7765 173.335 19.8874 185.224 5.22141 185.224C-9.44456 185.224 -21.3337 173.335 -21.3339 158.669L-47.8893 158.669Z" fill="#475CA3"/>
<circle cx="209.315" cy="106.602" r="8.29854" transform="rotate(89.6541 209.315 106.602)" fill="#324173"/>
<circle cx="118.364" cy="106.602" r="8.29854" transform="rotate(89.6541 118.364 106.602)" fill="#324173"/>
<path d="M164.555 212.761C135.223 212.938 111.301 189.304 111.124 159.973C110.947 130.641 134.582 106.719 163.913 106.542C193.245 106.365 217.166 130 217.343 159.331C217.52 188.663 193.886 212.584 164.555 212.761ZM164.394 186.206C179.06 186.117 190.877 174.156 190.788 159.491C190.699 144.825 178.739 133.008 164.074 133.097C149.408 133.185 137.59 145.146 137.679 159.811C137.767 174.477 149.728 186.295 164.394 186.206Z" fill="#475CA3"/>
<path d="M163.891 106.54C134.559 106.718 110.637 83.0832 110.46 53.7517C110.283 24.42 133.918 0.49777 163.249 0.320674C192.581 0.143731 216.502 23.7788 216.679 53.1104C216.856 82.4418 193.222 106.363 163.891 106.54ZM165.08 81.313C179.746 81.2244 191.563 69.2633 191.474 54.5975C191.385 39.932 179.425 28.1153 164.759 28.2037C150.094 28.2922 138.276 40.2525 138.365 54.9182C138.453 69.584 150.414 81.4016 165.08 81.313Z" fill="#DACC86"/>
<path d="M164.554 266.217C135.222 266.217 111.444 242.439 111.443 213.107C140.775 213.107 164.553 236.885 164.554 266.217ZM217.664 266.217C188.332 266.217 164.554 242.439 164.554 213.107C193.886 213.107 217.664 236.885 217.664 266.217Z" fill="#324173"/>
</svg>
