<svg width="880" height="636" viewBox="0 0 880 636" fill="none" xmlns="http://www.w3.org/2000/svg">
<rect x="302.499" y="524.636" width="221.444" height="221.444" transform="rotate(150 302.499 524.636)" fill="#475CA3"/>
<path d="M151.25 484.108C98.2929 514.683 30.5767 496.539 0.00168546 443.581L0.00204291 443.58C52.9595 413.005 120.676 431.15 151.251 484.108L151.25 484.108ZM151.252 484.107C120.677 431.15 138.821 363.434 191.778 332.859L191.78 332.859C222.354 385.816 204.21 453.532 151.253 484.107L151.252 484.107ZM301.259 525.342C248.489 554.924 181.59 536.651 151.253 484.108L151.255 484.106C204.212 453.531 271.928 471.677 302.503 524.634L301.259 525.342ZM110.726 635.357C80.1505 582.399 98.2946 514.682 151.252 484.107L151.253 484.108C181.828 537.065 163.684 604.781 110.726 635.356L110.726 635.357Z" fill="#DACC86"/>
<path fill-rule="evenodd" clip-rule="evenodd" d="M286.467 278.19C233.51 308.765 215.365 376.481 245.94 429.439C276.515 482.397 344.232 500.541 397.19 469.966L369.509 422.022C369.509 422.022 369.508 422.022 369.508 422.022C343.029 437.31 309.171 428.238 293.883 401.759C278.596 375.28 287.668 341.422 314.147 326.134C314.147 326.134 314.148 326.134 314.148 326.134L286.467 278.19Z" fill="#9FABD5"/>
<rect x="879.028" y="191.777" width="56.8005" height="221.444" transform="rotate(150 879.028 191.777)" fill="#DACC86"/>
<rect x="806.536" y="233.63" width="56.8005" height="221.444" transform="rotate(150 806.536 233.63)" fill="#DACC86"/>
<rect x="734.045" y="275.483" width="56.8005" height="221.444" transform="rotate(150 734.045 275.483)" fill="#DACC86"/>
<path d="M533.602 263.357C503.027 210.4 521.171 142.684 574.128 112.109L574.13 112.11C604.704 165.067 586.56 232.782 533.603 263.357L533.602 263.357Z" fill="#324173"/>
<path d="M533.602 263.357C503.027 210.4 521.171 142.684 574.128 112.109L574.13 112.11C604.704 165.067 586.56 232.782 533.603 263.357L533.602 263.357Z" fill="black" fill-opacity="0.2"/>
<path d="M588.963 359.245C558.388 306.288 576.532 238.572 629.489 207.997L629.492 207.997C660.066 260.955 641.921 328.67 588.964 359.245L588.963 359.245Z" fill="#324173"/>
<path d="M588.963 359.245C558.388 306.288 576.532 238.572 629.489 207.997L629.492 207.997C660.066 260.955 641.921 328.67 588.964 359.245L588.963 359.245Z" fill="black" fill-opacity="0.2"/>
<path d="M493.08 414.604C462.505 361.647 480.649 293.931 533.606 263.356L533.607 263.356C564.182 316.314 546.038 384.029 493.081 414.604L493.08 414.604Z" fill="#C7B349"/>
<path d="M533.607 263.355C503.032 210.397 435.316 192.253 382.358 222.828L382.358 222.829C412.933 275.786 480.649 293.93 533.606 263.355L533.607 263.355Z" fill="#C7B349"/>
<path d="M341.83 374.078C311.255 321.12 329.398 253.405 382.356 222.829L382.358 222.829C412.932 275.787 394.788 343.502 341.83 374.077L341.83 374.078Z" fill="#C7B349"/>
<path d="M493.08 414.604C462.505 361.647 394.788 343.502 341.831 374.077L341.829 374.079C372.405 427.036 440.121 445.18 493.079 414.605L493.08 414.604Z" fill="#C7B349"/>
</svg>
