<svg width="218" height="318" viewBox="0 0 218 318" fill="none" xmlns="http://www.w3.org/2000/svg">
<rect width="105.557" height="105.557" transform="matrix(-4.37114e-08 1 1 4.37114e-08 106.885 158.667)" fill="#DACC86"/>
<path d="M212.442 52.4453C198.493 52.4453 184.68 55.1927 171.793 60.5309C158.906 65.869 147.196 73.6931 137.333 83.5567C127.469 93.4202 119.645 105.13 114.307 118.017C108.969 130.905 106.221 144.717 106.221 158.666L212.442 158.666L212.442 52.4453Z" fill="#324173"/>
<path d="M212.442 211.777C205.468 211.777 198.561 213.151 192.118 215.82C185.674 218.489 179.819 222.401 174.887 227.333C169.956 232.264 166.044 238.119 163.375 244.563C160.705 251.007 159.332 257.913 159.332 264.887L212.442 264.887L212.442 211.777Z" fill="#475CA3"/>
<path d="M212.442 317.999C205.468 317.999 198.561 316.626 192.118 313.956C185.674 311.287 179.819 307.375 174.887 302.444C169.956 297.512 166.043 291.657 163.374 285.213C160.705 278.77 159.332 271.863 159.332 264.889L212.442 264.889L212.442 317.999Z" fill="#C7B349"/>
<path fill-rule="evenodd" clip-rule="evenodd" d="M265.553 158.667C265.553 129.334 241.774 105.556 212.442 105.556C183.11 105.556 159.332 129.334 159.332 158.667L185.887 158.667C185.887 144.001 197.776 132.112 212.442 132.112C227.108 132.112 238.997 144.001 238.997 158.667L265.553 158.667Z" fill="#C7B349"/>
<path fill-rule="evenodd" clip-rule="evenodd" d="M265.553 158.668C265.553 188 241.774 211.778 212.442 211.778C183.11 211.778 159.332 188 159.332 158.668L185.887 158.668C185.887 173.334 197.776 185.223 212.442 185.223C227.108 185.223 238.997 173.334 238.997 158.668L265.553 158.668Z" fill="#475CA3"/>
<circle cx="8.29852" cy="8.29852" r="8.29852" transform="matrix(-0.00603769 0.999982 0.999982 0.00603769 0.10022 98.2525)" fill="#324173"/>
<circle cx="8.29852" cy="8.29852" r="8.29852" transform="matrix(-0.00603769 0.999982 0.999982 0.00603769 91.052 98.2525)" fill="#324173"/>
<path d="M53.1094 212.76C82.4409 212.937 106.362 189.303 106.539 159.971C106.717 130.64 83.0823 106.718 53.7507 106.541C24.4192 106.364 0.497762 129.998 0.320664 159.33C0.143655 188.661 23.7779 212.583 53.1094 212.76ZM53.2697 186.205C38.604 186.116 26.7873 174.155 26.8758 159.489C26.9647 144.824 38.9248 133.007 53.5904 133.095C68.256 133.184 80.0735 145.144 79.9852 159.81C79.8967 174.476 67.9355 186.293 53.2697 186.205Z" fill="#475CA3"/>
<path d="M53.7733 106.539C83.1049 106.717 107.026 83.0822 107.203 53.7507C107.38 24.4191 83.7462 0.497777 54.4147 0.320679C25.0831 0.143665 1.1617 23.7779 0.984604 53.1094C0.807595 82.4409 24.4419 106.362 53.7733 106.539ZM52.5838 81.3121C37.9182 81.2235 26.1017 69.2631 26.1899 54.5975C26.2785 39.9318 38.2387 28.1142 52.9045 28.2027C67.5703 28.2912 79.3879 40.2524 79.2993 54.9182C79.2105 69.5838 67.2495 81.4006 52.5838 81.3121Z" fill="#DACC86"/>
<path d="M53.1103 266.216C82.4423 266.216 106.22 242.437 106.221 213.105C76.8888 213.105 53.1105 236.884 53.1103 266.216ZM-2.32153e-06 266.216C29.332 266.216 53.1101 242.437 53.1104 213.105C23.7784 213.105 8.76219e-05 236.884 -2.32153e-06 266.216Z" fill="#324173"/>
</svg>
