<svg width="993" height="968" viewBox="0 0 993 968" fill="none" xmlns="http://www.w3.org/2000/svg">
<g opacity="0.5" filter="url(#filter0_d_264_1882)">
<g filter="url(#filter1_d_264_1882)">
<path d="M378.592 732.749C372.125 730.294 362.664 731.995 357.456 736.555C352.252 741.112 353.276 746.799 359.743 749.255C363.873 750.823 369.226 750.687 373.906 749.204L353.506 767.068L378.856 776.693C373.951 776.938 368.893 778.678 365.569 781.588C360.365 786.145 361.386 791.829 367.856 794.285C374.327 796.742 383.788 795.039 388.992 790.482C392.316 787.571 393.086 784.204 391.539 781.509L416.891 791.135L437.29 773.272C432.61 774.754 427.257 774.891 423.127 773.322C416.658 770.866 415.636 765.18 420.84 760.623C426.048 756.062 435.507 754.36 441.976 756.817C446.106 758.385 448.009 761.269 447.496 764.334L467.894 746.472L442.542 736.846C447.448 736.601 452.506 734.864 455.829 731.954C461.034 727.397 460.014 721.709 453.542 719.252C447.073 716.795 437.611 718.503 432.406 723.06C429.083 725.97 428.312 729.335 429.859 732.03L404.51 722.405L384.112 740.267C384.625 737.202 382.722 734.317 378.592 732.749Z" stroke="url(#paint0_linear_264_1882)" stroke-width="3.84748" stroke-miterlimit="10" stroke-linecap="round" stroke-linejoin="round" fill="none">
  <animate attributeName="opacity" values="0;1;1;0" dur="8s" repeatCount="indefinite" begin="0s"/>
  <animate attributeName="fill" values="none;white;white;none" dur="8s" repeatCount="indefinite" begin="0s"/>
</path>
<path d="M334.886 716.154C341.353 718.61 342.381 724.293 337.177 728.851C331.969 733.411 322.504 735.115 316.037 732.66C311.907 731.092 310.012 728.203 310.522 725.137L290.123 743.001L315.472 752.626C310.567 752.871 305.509 754.611 302.186 757.521C296.981 762.078 298.005 767.763 304.472 770.218C310.941 772.675 320.404 770.972 325.609 766.415C328.932 763.504 329.705 760.138 328.158 757.443L353.507 767.068L373.907 749.205C369.226 750.687 363.873 750.824 359.743 749.256C353.276 746.8 352.252 741.113 357.457 736.556C362.665 731.995 372.126 730.294 378.593 732.75C382.723 734.318 384.626 737.202 384.113 740.267L404.511 722.406L379.161 712.78C380.709 715.475 379.938 718.84 376.614 721.75C371.41 726.308 361.945 728.012 355.476 725.556C349.009 723.1 347.987 717.414 353.191 712.857C356.515 709.946 361.571 708.208 366.476 707.963L341.126 698.338L320.729 716.2C325.411 714.718 330.756 714.586 334.886 716.154Z" stroke="url(#paint1_linear_264_1882)" stroke-width="3.84748" stroke-miterlimit="10" stroke-linecap="round" stroke-linejoin="round" fill="none">
  <animate attributeName="opacity" values="0;1;1;0" dur="8s" repeatCount="indefinite" begin="1s"/>
  <animate attributeName="fill" values="none;white;white;none" dur="8s" repeatCount="indefinite" begin="1s"/>
</path>
<path d="M163.036 640.653C157.832 645.21 158.856 650.897 165.325 653.354C171.797 655.811 181.257 654.105 186.461 649.548C189.785 646.637 190.556 643.273 189.006 640.576L214.358 650.203L234.759 632.338C230.078 633.824 224.728 633.958 220.598 632.389C214.129 629.933 213.105 624.248 218.31 619.691C223.518 615.131 232.978 613.427 239.448 615.884C243.577 617.452 245.481 620.336 244.962 623.404L265.363 605.539L240.011 595.912C241.562 598.608 240.788 601.975 237.465 604.885C232.259 609.444 222.796 611.147 216.329 608.691C209.859 606.235 208.833 600.549 214.04 595.99C217.363 593.08 222.421 591.34 227.331 591.097L201.981 581.472L150.976 626.136L176.325 635.762C171.415 636.005 166.359 637.743 163.036 640.653Z" stroke="url(#paint2_linear_264_1882)" stroke-width="3.84748" stroke-miterlimit="10" stroke-linecap="round" stroke-linejoin="round" fill="none">
  <animate attributeName="opacity" values="0;1;1;0" dur="8s" repeatCount="indefinite" begin="2s"/>
  <animate attributeName="fill" values="none;white;white;none" dur="8s" repeatCount="indefinite" begin="2s"/>
</path>
<path d="M191.252 695.521C196.458 690.962 205.918 689.258 212.388 691.715C218.857 694.171 219.883 699.857 214.677 704.415C211.353 707.326 206.295 709.063 201.39 709.308L226.742 718.934L247.141 701.071C246.626 704.135 248.524 707.024 252.654 708.592C259.123 711.049 268.585 709.344 273.793 704.783C278.998 700.226 277.972 694.543 271.503 692.086C267.373 690.518 262.025 690.65 257.348 692.133L277.745 674.271L252.394 664.645C257.299 664.4 262.357 662.663 265.681 659.753C270.885 655.196 269.863 649.507 263.393 647.05C256.924 644.594 247.46 646.301 242.255 650.858C238.932 653.768 238.161 657.133 239.711 659.829L214.359 650.203L193.961 668.065C198.644 666.583 203.991 666.452 208.121 668.02C214.588 670.475 215.616 676.159 210.412 680.716C205.204 685.277 195.739 686.981 189.272 684.526C185.142 682.958 183.244 680.068 183.755 677.002L163.355 694.866L188.707 704.492C187.157 701.796 187.928 698.431 191.252 695.521Z" stroke="url(#paint3_linear_264_1882)" stroke-width="3.84748" stroke-miterlimit="10" stroke-linecap="round" stroke-linejoin="round" fill="none">
  <animate attributeName="opacity" values="0;1;1;0" dur="8s" repeatCount="indefinite" begin="3s"/>
  <animate attributeName="fill" values="none;white;white;none" dur="8s" repeatCount="indefinite" begin="3s"/>
</path>
<path d="M302.828 639.95C296.361 637.494 286.898 639.197 281.692 643.756C276.488 648.313 277.512 654 283.979 656.456C288.109 658.024 293.458 657.891 298.145 656.406L277.743 674.271L303.093 683.896C301.543 681.2 302.314 677.835 305.637 674.925C310.842 670.368 320.306 668.661 326.775 671.118C333.242 673.573 334.264 679.262 329.06 683.819C325.737 686.729 320.681 688.467 315.773 688.711L341.125 698.338L361.526 680.473C356.84 681.957 351.493 682.091 347.363 680.523C340.896 678.068 339.874 672.382 345.079 667.824C350.285 663.266 359.745 661.562 366.212 664.018C370.342 665.586 372.243 668.469 371.729 671.538L392.131 653.673L366.779 644.047C368.329 646.743 367.556 650.11 364.232 653.02C359.026 657.579 349.563 659.282 343.096 656.826C336.627 654.369 335.603 648.685 340.809 644.126C344.133 641.216 349.191 639.476 354.098 639.232L328.749 629.607L308.347 647.472C308.861 644.403 306.958 641.518 302.828 639.95Z" stroke="url(#paint4_linear_264_1882)" stroke-width="3.84748" stroke-miterlimit="10" stroke-linecap="round" stroke-linejoin="round" fill="none">
  <animate attributeName="opacity" values="0;1;1;0" dur="8s" repeatCount="indefinite" begin="4s"/>
  <animate attributeName="fill" values="none;white;white;none" dur="8s" repeatCount="indefinite" begin="4s"/>
</path>
<path d="M242.254 650.859C247.458 646.301 256.923 644.595 263.392 647.051C269.861 649.508 270.883 655.196 265.679 659.753C262.356 662.664 257.297 664.401 252.392 664.646L277.744 674.272L298.145 656.407C293.459 657.892 288.11 658.025 283.98 656.457C277.513 654.001 276.489 648.314 281.693 643.757C286.899 639.198 296.362 637.495 302.829 639.951C306.959 641.519 308.862 644.404 308.348 647.473L328.749 629.608L303.398 619.981C308.301 619.738 313.361 617.999 316.685 615.089C321.889 610.532 320.865 604.845 314.396 602.388C307.926 599.932 298.464 601.637 293.259 606.194C289.936 609.105 289.163 612.471 290.715 615.166L265.363 605.539L244.962 623.404C245.48 620.337 243.577 617.452 239.447 615.884C232.978 613.428 223.517 615.131 218.309 619.692C213.105 624.249 214.129 629.934 220.598 632.39C224.728 633.958 230.077 633.825 234.759 632.339L214.357 650.204L239.709 659.83C238.159 657.134 238.93 653.769 242.254 650.859Z" stroke="url(#paint5_linear_264_1882)" stroke-width="3.84748" stroke-miterlimit="10" stroke-linecap="round" stroke-linejoin="round" fill="none">
  <animate attributeName="opacity" values="0;1;1;0" dur="8s" repeatCount="indefinite" begin="5s"/>
  <animate attributeName="fill" values="none;white;white;none" dur="8s" repeatCount="indefinite" begin="5s"/>
</path>
</g>
<path d="M437.279 626.14C443.746 628.595 444.774 634.279 439.569 638.836C434.361 643.397 424.896 645.101 418.429 642.645C414.3 641.077 412.404 638.189 412.915 635.123L392.515 652.986L417.865 662.612C412.959 662.856 407.902 664.596 404.578 667.506C399.374 672.064 400.397 677.748 406.864 680.204C413.334 682.66 422.797 680.957 428.001 676.4C431.324 673.49 432.098 670.123 430.55 667.428L455.899 677.054L476.299 659.19C471.619 660.673 466.266 660.809 462.136 659.241C455.669 656.785 454.645 651.098 459.849 646.541C465.057 641.981 474.518 640.28 480.985 642.735C485.115 644.303 487.018 647.188 486.505 650.253L506.903 632.391L481.554 622.766C483.101 625.461 482.33 628.826 479.007 631.736C473.802 636.293 464.337 637.998 457.868 635.541C451.401 633.085 450.379 627.399 455.584 622.842C458.907 619.932 463.963 618.194 468.868 617.949L443.519 608.324L423.121 626.185C427.804 624.704 433.149 624.571 437.279 626.14Z" stroke="url(#paint6_linear_264_1882)" stroke-width="3.84748" stroke-miterlimit="10" stroke-linecap="round" stroke-linejoin="round" fill="none">
  <animate attributeName="opacity" values="0;1;1;0" dur="8s" repeatCount="indefinite" begin="6s"/>
  <animate attributeName="fill" values="none;white;white;none" dur="8s" repeatCount="indefinite" begin="6s"/>
</path>
<path d="M265.429 550.638C260.224 555.195 261.248 560.883 267.718 563.339C274.189 565.796 283.65 564.09 288.854 559.533C292.177 556.623 292.949 553.258 291.399 550.562L316.75 560.188L337.152 542.323C332.47 543.81 327.121 543.943 322.991 542.375C316.522 539.918 315.498 534.234 320.702 529.676C325.91 525.116 335.371 523.412 341.84 525.869C345.97 527.437 347.873 530.322 347.354 533.389L367.756 515.524L342.404 505.898C343.954 508.594 343.181 511.96 339.857 514.87C334.651 519.429 325.188 521.132 318.721 518.676C312.252 516.22 311.226 510.535 316.432 505.976C319.756 503.065 324.814 501.326 329.723 501.083L304.374 491.457L253.368 536.122L278.718 545.747C273.808 545.99 268.752 547.728 265.429 550.638Z" stroke="url(#paint7_linear_264_1882)" stroke-width="3.84748" stroke-miterlimit="10" stroke-linecap="round" stroke-linejoin="round" fill="none">
  <animate attributeName="opacity" values="0;1;1;0" dur="8s" repeatCount="indefinite" begin="7s"/>
  <animate attributeName="fill" values="none;white;white;none" dur="8s" repeatCount="indefinite" begin="7s"/>
</path>
<g filter="url(#filter2_d_264_1882)">
<path d="M293.644 605.507C298.85 600.948 308.311 599.244 314.78 601.701C321.249 604.157 322.275 609.843 317.069 614.401C313.746 617.312 308.687 619.049 303.782 619.294L329.134 628.92L349.534 611.057C349.018 614.121 350.916 617.01 355.046 618.578C361.515 621.035 370.978 619.329 376.186 614.769C381.39 610.212 380.364 604.529 373.895 602.072C369.765 600.504 364.418 600.636 359.74 602.119L380.138 584.257L354.786 574.631C359.691 574.386 364.749 572.649 368.073 569.739C373.277 565.182 372.255 559.493 365.786 557.036C359.316 554.58 349.852 556.287 344.648 560.844C341.324 563.754 340.553 567.119 342.103 569.815L316.751 560.189L296.353 578.051C301.036 576.569 306.383 576.438 310.513 578.006C316.98 580.461 318.008 586.145 312.804 590.702C307.596 595.263 298.131 596.967 291.664 594.512C287.534 592.943 285.637 590.054 286.147 586.988L265.747 604.852L291.099 614.478C289.549 611.782 290.32 608.417 293.644 605.507Z" stroke="url(#paint8_linear_264_1882)" stroke-width="3.84748" stroke-miterlimit="10" stroke-linecap="round" stroke-linejoin="round" shape-rendering="crispEdges">
  <animate attributeName="opacity" values="0;1;1;0" dur="8s" repeatCount="indefinite" begin="8s"/>
  <animate attributeName="fill" values="none;white;white;none" dur="8s" repeatCount="indefinite" begin="8s"/>
</path>
</g>
<path d="M405.222 549.935C398.755 547.479 389.292 549.182 384.086 553.741C378.881 558.298 379.905 563.985 386.372 566.44C390.502 568.009 395.852 567.875 400.538 566.391L380.137 584.256L405.486 593.881C403.936 591.185 404.707 587.82 408.031 584.91C413.235 580.353 422.699 578.646 429.169 581.102C435.636 583.558 436.658 589.247 431.454 593.804C428.13 596.714 423.074 598.452 418.167 598.696L443.518 608.322L463.92 590.457C459.234 591.942 453.886 592.076 449.757 590.508C443.29 588.052 442.268 582.366 447.472 577.809C452.678 573.25 462.139 571.547 468.606 574.002C472.736 575.57 474.637 578.454 474.122 581.523L494.524 563.658L469.172 554.032C470.722 556.728 469.949 560.094 466.626 563.005C461.419 567.563 451.956 569.266 445.489 566.811C439.02 564.354 437.996 558.67 443.203 554.111C446.526 551.2 451.584 549.461 456.491 549.217L431.142 539.591L410.741 557.456C411.255 554.387 409.352 551.503 405.222 549.935Z" stroke="url(#paint9_linear_264_1882)" stroke-width="3.84748" stroke-miterlimit="10" stroke-linecap="round" stroke-linejoin="round" fill="none">
  <animate attributeName="opacity" values="0;1;1;0" dur="8s" repeatCount="indefinite" begin="9s"/>
  <animate attributeName="fill" values="none;white;white;none" dur="8s" repeatCount="indefinite" begin="9s"/>
</path>
<path d="M267.192 432.59C260.725 430.134 251.262 431.837 246.056 436.396C240.851 440.953 241.875 446.64 248.342 449.096C252.472 450.664 257.822 450.531 262.508 449.046L242.107 466.911L267.456 476.536C265.906 473.84 266.677 470.475 270.001 467.565C275.205 463.008 284.669 461.301 291.139 463.758C297.606 466.213 298.628 471.902 293.424 476.459C290.1 479.369 285.044 481.107 280.137 481.351L305.488 490.978L325.89 473.113C321.204 474.597 315.856 474.731 311.727 473.163C305.26 470.708 304.238 465.021 309.442 460.464C314.648 455.905 324.109 454.202 330.576 456.657C334.706 458.226 336.607 461.109 336.092 464.178L356.494 446.313L331.142 436.687C332.692 439.383 331.919 442.75 328.596 445.66C323.389 450.219 313.926 451.921 307.459 449.466C300.99 447.009 299.966 441.325 305.173 436.766C308.496 433.856 313.554 432.116 318.461 431.872L293.112 422.247L272.711 440.112C273.225 437.043 271.322 434.158 267.192 432.59Z" stroke="url(#paint10_linear_264_1882)" stroke-width="3.84748" stroke-miterlimit="10" stroke-linecap="round" stroke-linejoin="round" fill="none">
  <animate attributeName="opacity" values="0;1;1;0" dur="8s" repeatCount="indefinite" begin="10s"/>
  <animate attributeName="fill" values="none;white;white;none" dur="8s" repeatCount="indefinite" begin="10s"/>
</path>
<path d="M344.647 560.843C349.852 556.286 359.316 554.579 365.785 557.036C372.255 559.492 373.277 565.181 368.073 569.738C364.749 572.648 359.691 574.385 354.786 574.63L380.137 584.256L400.539 566.391C395.853 567.876 390.503 568.009 386.373 566.441C379.906 563.986 378.882 558.299 384.086 553.741C389.293 549.183 398.756 547.48 405.223 549.935C409.352 551.504 411.256 554.388 410.741 557.457L431.143 539.592L405.791 529.966C410.694 529.723 415.755 527.984 419.078 525.074C424.282 520.516 423.258 514.829 416.789 512.373C410.32 509.916 400.857 511.622 395.653 516.179C392.329 519.089 391.556 522.456 393.108 525.15L367.756 515.524L347.355 533.389C347.874 530.322 345.971 527.437 341.841 525.869C335.371 523.412 325.911 525.116 320.703 529.676C315.499 534.234 316.522 539.918 322.991 542.375C327.121 543.943 332.471 543.81 337.152 542.323L316.751 560.188L342.103 569.814C340.553 567.118 341.324 563.753 344.647 560.843Z" stroke="url(#paint11_linear_264_1882)" stroke-width="3.84748" stroke-miterlimit="10" stroke-linecap="round" stroke-linejoin="round" fill="none">
  <animate attributeName="opacity" values="0;1;1;0" dur="8s" repeatCount="indefinite" begin="11s"/>
  <animate attributeName="fill" values="none;white;white;none" dur="8s" repeatCount="indefinite" begin="11s"/>
</path>
<path d="M539.674 536.125C546.141 538.581 547.169 544.264 541.964 548.822C536.756 553.382 527.292 555.087 520.825 552.631C516.695 551.063 514.799 548.174 515.31 545.108L494.91 562.972L520.26 572.597C515.355 572.842 510.297 574.582 506.973 577.492C501.769 582.049 502.793 587.734 509.26 590.189C515.729 592.646 525.192 590.943 530.396 586.386C533.72 583.476 534.493 580.109 532.945 577.414L558.294 587.039L578.694 569.176C574.014 570.658 568.661 570.795 564.531 569.227C558.064 566.771 557.04 561.084 562.244 556.527C567.452 551.966 576.913 550.265 583.38 552.721C587.51 554.289 589.413 557.174 588.9 560.238L609.298 542.377L583.949 532.751C585.496 535.446 584.725 538.811 581.402 541.722C576.197 546.279 566.733 547.983 560.263 545.527C553.796 543.071 552.774 537.385 557.979 532.828C561.302 529.917 566.358 528.179 571.263 527.935L545.914 518.309L525.516 536.171C530.199 534.689 535.544 534.557 539.674 536.125Z" stroke="url(#paint12_linear_264_1882)" stroke-width="3.84748" stroke-miterlimit="10" stroke-linecap="round" stroke-linejoin="round" fill="none">
  <animate attributeName="opacity" values="0;1;1;0" dur="8s" repeatCount="indefinite" begin="12s"/>
  <animate attributeName="fill" values="none;white;white;none" dur="8s" repeatCount="indefinite" begin="12s"/>
</path>
<path d="M367.824 460.624C362.619 465.181 363.644 470.869 370.113 473.325C376.585 475.782 386.045 474.076 391.249 469.519C394.572 466.609 395.344 463.244 393.794 460.548L419.145 470.174L439.547 452.309C434.865 453.796 429.516 453.929 425.386 452.361C418.917 449.904 417.893 444.22 423.097 439.662C428.305 435.102 437.766 433.398 444.235 435.855C448.365 437.423 450.268 440.308 449.75 443.375L470.151 425.51L444.799 415.884C446.349 418.58 445.576 421.946 442.253 424.856C437.047 429.415 427.584 431.118 421.117 428.662C414.647 426.206 413.621 420.52 418.827 415.962C422.151 413.051 427.209 411.312 432.119 411.069L406.769 401.443L355.764 446.107L381.113 455.733C376.203 455.976 371.147 457.714 367.824 460.624Z" stroke="url(#paint13_linear_264_1882)" stroke-width="3.84748" stroke-miterlimit="10" stroke-linecap="round" stroke-linejoin="round" fill="none">
  <animate attributeName="opacity" values="0;1;1;0" dur="8s" repeatCount="indefinite" begin="13s"/>
  <animate attributeName="fill" values="none;white;white;none" dur="8s" repeatCount="indefinite" begin="13s"/>
</path>
<path d="M396.039 515.492C401.245 510.933 410.706 509.229 417.175 511.686C423.644 514.142 424.67 519.828 419.464 524.387C416.141 527.297 411.082 529.034 406.177 529.279L431.529 538.905L451.929 521.042C451.413 524.106 453.311 526.995 457.441 528.563C463.91 531.02 473.373 529.315 478.581 524.754C483.785 520.197 482.76 514.514 476.29 512.058C472.16 510.49 466.813 510.621 462.135 512.104L482.533 494.243L457.181 484.616C462.086 484.371 467.144 482.634 470.468 479.724C475.672 475.167 474.65 469.478 468.181 467.022C461.711 464.565 452.247 466.272 447.043 470.829C443.719 473.74 442.948 477.104 444.498 479.8L419.146 470.174L398.748 488.036C403.431 486.554 408.778 486.423 412.908 487.991C419.375 490.447 420.403 496.13 415.199 500.688C409.991 505.248 400.526 506.952 394.059 504.497C389.929 502.929 388.032 500.039 388.542 496.973L368.142 514.837L393.494 524.463C391.944 521.767 392.716 518.402 396.039 515.492Z" stroke="url(#paint14_linear_264_1882)" stroke-width="3.84748" stroke-miterlimit="10" stroke-linecap="round" stroke-linejoin="round" fill="none">
  <animate attributeName="opacity" values="0;1;1;0" dur="8s" repeatCount="indefinite" begin="14s"/>
  <animate attributeName="fill" values="none;white;white;none" dur="8s" repeatCount="indefinite" begin="14s"/>
</path>
<path d="M507.617 459.92C501.15 457.465 491.687 459.167 486.481 463.726C481.277 468.283 482.301 473.97 488.768 476.426C492.898 477.994 498.247 477.861 502.933 476.376L482.532 494.241L507.881 503.867C506.331 501.171 507.102 497.806 510.426 494.895C515.63 490.338 525.094 488.631 531.564 491.088C538.031 493.543 539.053 499.232 533.849 503.789C530.525 506.7 525.469 508.438 520.562 508.682L545.914 518.308L566.315 500.443C561.629 501.928 556.282 502.062 552.152 500.494C545.685 498.038 544.663 492.352 549.867 487.795C555.073 483.236 564.534 481.532 571.001 483.988C575.131 485.556 577.032 488.44 576.518 491.509L596.919 473.644L571.567 464.017C573.117 466.713 572.344 470.08 569.021 472.99C563.815 477.549 554.352 479.252 547.885 476.796C541.415 474.34 540.392 468.655 545.598 464.096C548.921 461.186 553.979 459.446 558.887 459.202L533.537 449.577L513.136 467.442C513.65 464.373 511.747 461.488 507.617 459.92Z" stroke="url(#paint15_linear_264_1882)" stroke-width="3.84748" stroke-miterlimit="10" stroke-linecap="round" stroke-linejoin="round" fill="none">
  <animate attributeName="opacity" values="0;1;1;0" dur="8s" repeatCount="indefinite" begin="15s"/>
  <animate attributeName="fill" values="none;white;white;none" dur="8s" repeatCount="indefinite" begin="15s"/>
</path>
<path d="M447.043 470.829C452.247 466.272 461.711 464.565 468.181 467.021C474.65 469.478 475.672 475.167 470.468 479.724C467.144 482.634 462.086 484.371 457.181 484.616L482.533 494.242L502.934 476.377C498.248 477.862 492.898 477.995 488.768 476.427C482.301 473.972 481.277 468.284 486.482 463.727C491.688 459.168 501.151 457.466 507.618 459.921C511.748 461.489 513.651 464.374 513.137 467.443L533.538 449.578L508.186 439.952C513.09 439.709 518.15 437.97 521.473 435.06C526.678 430.502 525.654 424.815 519.184 422.359C512.715 419.902 503.252 421.608 498.048 426.165C494.725 429.075 493.951 432.442 495.503 435.136L470.152 425.51L449.75 443.375C450.269 440.307 448.366 437.423 444.236 435.855C437.767 433.398 428.306 435.102 423.098 439.662C417.894 444.219 418.917 449.904 425.387 452.36C429.517 453.929 434.866 453.796 439.548 452.309L419.146 470.174L444.498 479.8C442.948 477.104 443.719 473.739 447.043 470.829Z" stroke="url(#paint16_linear_264_1882)" stroke-width="3.84748" stroke-miterlimit="10" stroke-linecap="round" stroke-linejoin="round" fill="none">
  <animate attributeName="opacity" values="0;1;1;0" dur="8s" repeatCount="indefinite" begin="16s"/>
  <animate attributeName="fill" values="none;white;white;none" dur="8s" repeatCount="indefinite" begin="16s"/>
</path>
<path d="M685.776 462.704C679.309 460.249 669.848 461.95 664.64 466.51C659.436 471.068 660.46 476.755 666.927 479.21C671.057 480.778 676.41 480.642 681.09 479.16L660.69 497.023L686.04 506.648C681.135 506.893 676.077 508.633 672.753 511.543C667.549 516.1 668.57 521.784 675.04 524.24C681.511 526.698 690.972 524.994 696.176 520.437C699.5 517.527 700.271 514.159 698.723 511.464L724.075 521.09L744.474 503.227C739.794 504.709 734.441 504.846 730.311 503.278C723.842 500.821 722.82 495.135 728.024 490.578C733.232 486.017 742.691 484.315 749.16 486.772C753.29 488.34 755.193 491.225 754.681 494.29L775.078 476.428L749.726 466.802C754.632 466.557 759.69 464.82 763.014 461.909C768.218 457.352 767.198 451.664 760.726 449.207C754.257 446.75 744.795 448.458 739.591 453.015C736.267 455.926 735.496 459.291 737.044 461.986L711.694 452.36L691.296 470.222C691.809 467.157 689.906 464.273 685.776 462.704Z" stroke="url(#paint17_linear_264_1882)" stroke-width="3.84748" stroke-miterlimit="10" stroke-linecap="round" stroke-linejoin="round" fill="none">
  <animate attributeName="opacity" values="0;1;1;0" dur="8s" repeatCount="indefinite" begin="17s"/>
  <animate attributeName="fill" values="none;white;white;none" dur="8s" repeatCount="indefinite" begin="17s"/>
</path>
<path d="M642.07 446.11C648.537 448.565 649.565 454.249 644.361 458.806C639.153 463.367 629.688 465.071 623.221 462.615C619.091 461.047 617.196 458.158 617.706 455.093L597.307 472.956L622.656 482.582C617.751 482.826 612.693 484.566 609.369 487.476C604.165 492.034 605.189 497.718 611.656 500.174C618.125 502.63 627.588 500.927 632.792 496.37C636.116 493.46 636.889 490.093 635.341 487.398L660.691 497.024L681.09 479.16C676.41 480.643 671.057 480.779 666.927 479.211C660.46 476.755 659.436 471.068 664.64 466.511C669.848 461.951 679.309 460.25 685.776 462.705C689.906 464.273 691.809 467.158 691.297 470.223L711.694 452.361L686.345 442.736C687.893 445.431 687.121 448.796 683.798 451.706C678.594 456.263 669.129 457.967 662.659 455.511C656.192 453.055 655.171 447.369 660.375 442.812C663.698 439.902 668.754 438.164 673.66 437.919L648.31 428.294L627.912 446.155C632.595 444.674 637.94 444.541 642.07 446.11Z" stroke="url(#paint18_linear_264_1882)" stroke-width="3.84748" stroke-miterlimit="10" stroke-linecap="round" stroke-linejoin="round" fill="none">
  <animate attributeName="opacity" values="0;1;1;0" dur="8s" repeatCount="indefinite" begin="18s"/>
  <animate attributeName="fill" values="none;white;white;none" dur="8s" repeatCount="indefinite" begin="18s"/>
</path>
<path d="M470.22 370.608C465.016 375.165 466.04 380.852 472.509 383.309C478.981 385.766 488.441 384.06 493.645 379.503C496.969 376.593 497.74 373.228 496.19 370.532L521.542 380.158L541.943 362.293C537.262 363.78 531.912 363.913 527.782 362.345C521.313 359.888 520.289 354.204 525.494 349.646C530.702 345.086 540.162 343.382 546.632 345.839C550.761 347.407 552.665 350.292 552.146 353.359L572.547 335.494L547.195 325.867C548.746 328.563 547.972 331.93 544.649 334.84C539.443 339.399 529.98 341.102 523.513 338.646C517.043 336.19 516.017 330.504 521.224 325.946C524.547 323.035 529.605 321.296 534.515 321.053L509.165 311.427L458.16 356.091L483.509 365.717C478.599 365.96 473.543 367.698 470.22 370.608Z" stroke="url(#paint19_linear_264_1882)" stroke-width="3.84748" stroke-miterlimit="10" stroke-linecap="round" stroke-linejoin="round" fill="none">
  <animate attributeName="opacity" values="0;1;1;0" dur="8s" repeatCount="indefinite" begin="19s"/>
  <animate attributeName="fill" values="none;white;white;none" dur="8s" repeatCount="indefinite" begin="19s"/>
</path>
<path d="M498.435 425.476C503.641 420.918 513.102 419.214 519.571 421.67C526.041 424.127 527.067 429.812 521.861 434.371C518.537 437.281 513.479 439.018 508.574 439.263L533.925 448.89L554.325 431.026C553.81 434.09 555.707 436.98 559.837 438.548C566.307 441.004 575.769 439.299 580.977 434.739C586.181 430.182 585.156 424.499 578.687 422.042C574.557 420.474 569.209 420.605 564.531 422.089L584.929 404.227L559.577 394.601C564.482 394.356 569.541 392.619 572.864 389.709C578.069 385.151 577.046 379.463 570.577 377.006C564.108 374.55 554.643 376.257 549.439 380.814C546.116 383.724 545.344 387.089 546.894 389.785L521.543 380.159L501.145 398.02C505.827 396.539 511.175 396.407 515.305 397.976C521.772 400.431 522.8 406.115 517.595 410.672C512.387 415.233 502.923 416.937 496.456 414.481C492.326 412.913 490.428 410.024 490.938 406.958L470.539 424.821L495.891 434.448C494.341 431.752 495.112 428.387 498.435 425.476Z" stroke="url(#paint20_linear_264_1882)" stroke-width="3.84748" stroke-miterlimit="10" stroke-linecap="round" stroke-linejoin="round" fill="none">
  <animate attributeName="opacity" values="0;1;1;0" dur="8s" repeatCount="indefinite" begin="20s"/>
  <animate attributeName="fill" values="none;white;white;none" dur="8s" repeatCount="indefinite" begin="20s"/>
</path>
<path d="M610.012 369.906C603.545 367.45 594.082 369.153 588.876 373.712C583.672 378.269 584.696 383.956 591.163 386.412C595.293 387.98 600.642 387.847 605.329 386.362L584.927 404.227L610.277 413.852C608.726 411.156 609.498 407.791 612.821 404.881C618.025 400.324 627.49 398.617 633.959 401.073C640.426 403.529 641.448 409.218 636.244 413.775C632.921 416.685 627.865 418.423 622.957 418.667L648.309 428.293L668.71 410.428C664.024 411.913 658.677 412.047 654.547 410.479C648.08 408.023 647.058 402.337 652.263 397.78C657.469 393.221 666.929 391.518 673.396 393.973C677.526 395.541 679.427 398.425 678.913 401.494L699.314 383.629L673.963 374.003C675.513 376.699 674.74 380.065 671.416 382.976C666.21 387.535 656.747 389.237 650.28 386.782C643.811 384.325 642.787 378.641 647.993 374.082C651.317 371.172 656.375 369.432 661.282 369.188L635.933 359.562L615.531 377.428C616.045 374.358 614.142 371.474 610.012 369.906Z" stroke="url(#paint21_linear_264_1882)" stroke-width="3.84748" stroke-miterlimit="10" stroke-linecap="round" stroke-linejoin="round" fill="none">
  <animate attributeName="opacity" values="0;1;1;0" dur="8s" repeatCount="indefinite" begin="21s"/>
  <animate attributeName="fill" values="none;white;white;none" dur="8s" repeatCount="indefinite" begin="21s"/>
</path>
<g filter="url(#filter3_d_264_1882)">
<path d="M549.437 380.814C554.642 376.257 564.106 374.55 570.575 377.006C577.045 379.463 578.067 385.152 572.863 389.709C569.539 392.619 564.481 394.356 559.576 394.601L584.928 404.227L605.329 386.362C600.643 387.847 595.293 387.98 591.163 386.412C584.696 383.957 583.672 378.27 588.877 373.712C594.083 369.153 603.546 367.451 610.013 369.906C614.143 371.475 616.046 374.359 615.532 377.428L635.933 359.563L610.581 349.937C615.485 349.694 620.545 347.955 623.868 345.045C629.073 340.487 628.048 334.8 621.579 332.344C615.11 329.887 605.647 331.593 600.443 336.15C597.12 339.06 596.346 342.427 597.898 345.121L572.547 335.495L552.145 353.36C552.664 350.293 550.761 347.408 546.631 345.84C540.162 343.383 530.701 345.087 525.493 349.647C520.289 354.205 521.312 359.889 527.782 362.346C531.911 363.914 537.261 363.781 541.942 362.294L521.541 380.159L546.893 389.785C545.343 387.089 546.114 383.724 549.437 380.814Z" stroke="url(#paint22_linear_264_1882)" stroke-width="3.84748" stroke-miterlimit="10" stroke-linecap="round" stroke-linejoin="round" shape-rendering="crispEdges">
  <animate attributeName="opacity" values="0;1;1;0" dur="8s" repeatCount="indefinite" begin="22s"/>
  <animate attributeName="fill" values="none;white;white;none" dur="8s" repeatCount="indefinite" begin="22s"/>
</path>
</g>
<g filter="url(#filter4_d_264_1882)">
<path d="M788.171 372.689C781.704 370.234 772.243 371.935 767.035 376.495C761.83 381.052 762.854 386.739 769.321 389.195C773.451 390.763 778.805 390.627 783.485 389.144L763.085 407.008L788.435 416.633C783.529 416.878 778.471 418.618 775.148 421.528C769.944 426.085 770.965 431.769 777.434 434.225C783.906 436.682 793.367 434.979 798.571 430.422C801.894 427.511 802.665 424.144 801.118 421.449L826.469 431.075L846.869 413.212C842.189 414.694 836.836 414.831 832.706 413.262C826.236 410.806 825.215 405.12 830.419 400.563C835.627 396.002 845.086 394.3 851.555 396.757C855.685 398.325 857.588 401.209 857.075 404.274L877.473 386.413L852.121 376.786C857.026 376.541 862.085 374.804 865.408 371.894C870.612 367.337 869.593 361.649 863.121 359.192C856.652 356.735 847.189 358.443 841.985 363C838.662 365.91 837.89 369.275 839.438 371.97L814.089 362.345L793.691 380.207C794.204 377.142 792.301 374.257 788.171 372.689Z" stroke="url(#paint23_linear_264_1882)" stroke-width="3.84748" stroke-miterlimit="10" stroke-linecap="round" stroke-linejoin="round" fill="none">
  <animate attributeName="opacity" values="0;1;1;0" dur="8s" repeatCount="indefinite" begin="23s"/>
  <animate attributeName="fill" values="none;white;white;none" dur="8s" repeatCount="indefinite" begin="23s"/>
</path>
<path d="M744.465 356.094C750.932 358.549 751.96 364.233 746.756 368.79C741.548 373.351 732.083 375.055 725.616 372.6C721.486 371.032 719.591 368.143 720.101 365.077L699.701 382.941L725.051 392.566C720.146 392.811 715.088 394.55 711.764 397.461C706.56 402.018 707.584 407.702 714.051 410.158C720.52 412.614 729.983 410.912 735.187 406.355C738.511 403.444 739.284 400.078 737.736 397.383L763.086 407.008L783.485 389.145C778.805 390.627 773.452 390.763 769.322 389.195C762.855 386.74 761.831 381.053 767.035 376.495C772.243 371.935 781.704 370.234 788.171 372.69C792.301 374.258 794.204 377.142 793.692 380.207L814.089 362.345L788.74 352.72C790.288 355.415 789.516 358.78 786.193 361.69C780.989 366.248 771.524 367.952 765.054 365.495C758.587 363.04 757.566 357.354 762.77 352.796C766.093 349.886 771.149 348.148 776.055 347.903L750.705 338.278L730.307 356.14C734.99 354.658 740.335 354.526 744.465 356.094Z" stroke="url(#paint24_linear_264_1882)" stroke-width="3.84748" stroke-miterlimit="10" stroke-linecap="round" stroke-linejoin="round" fill="none">
  <animate attributeName="opacity" values="0;1;1;0" dur="8s" repeatCount="indefinite" begin="24s"/>
  <animate attributeName="fill" values="none;white;white;none" dur="8s" repeatCount="indefinite" begin="24s"/>
</path>
<path d="M572.615 280.593C567.41 285.15 568.435 290.837 574.904 293.294C581.376 295.751 590.836 294.045 596.04 289.488C599.363 286.577 600.135 283.213 598.585 280.517L623.936 290.143L644.338 272.278C639.656 273.764 634.307 273.898 630.177 272.329C623.708 269.873 622.684 264.188 627.888 259.631C633.096 255.071 642.557 253.367 649.026 255.824C653.156 257.392 655.059 260.276 654.541 263.344L674.942 245.479L649.59 235.852C651.14 238.548 650.367 241.915 647.044 244.825C641.838 249.384 632.375 251.087 625.908 248.631C619.438 246.175 618.412 240.489 623.618 235.93C626.942 233.02 632 231.28 636.91 231.037L611.56 221.412L560.555 266.076L585.904 275.702C580.994 275.945 575.938 277.683 572.615 280.593Z" stroke="url(#paint25_linear_264_1882)" stroke-width="3.84748" stroke-miterlimit="10" stroke-linecap="round" stroke-linejoin="round" fill="none">
  <animate attributeName="opacity" values="0;1;1;0" dur="8s" repeatCount="indefinite" begin="1s"/>
  <animate attributeName="fill" values="none;white;white;none" dur="8s" repeatCount="indefinite" begin="1s"/>
</path>
<path d="M600.83 335.461C606.036 330.902 615.497 329.199 621.966 331.655C628.436 334.112 629.462 339.797 624.255 344.356C620.932 347.266 615.874 349.003 610.968 349.248L636.32 358.874L656.72 341.011C656.205 344.075 658.102 346.965 662.232 348.533C668.701 350.989 678.164 349.284 683.372 344.723C688.576 340.166 687.551 334.483 681.081 332.027C676.951 330.459 671.604 330.59 666.926 332.074L687.324 314.212L661.972 304.586C666.877 304.341 671.936 302.604 675.259 299.693C680.463 295.136 679.441 289.447 672.972 286.991C666.502 284.534 657.038 286.241 651.834 290.799C648.51 293.709 647.739 297.074 649.289 299.77L623.937 290.143L603.54 308.005C608.222 306.524 613.57 306.392 617.7 307.96C624.167 310.416 625.194 316.1 619.99 320.657C614.782 325.217 605.317 326.922 598.85 324.466C594.72 322.898 592.823 320.008 593.333 316.943L572.934 334.806L598.285 344.432C596.735 341.736 597.507 338.371 600.83 335.461Z" stroke="url(#paint26_linear_264_1882)" stroke-width="3.84748" stroke-miterlimit="10" stroke-linecap="round" stroke-linejoin="round" fill="none">
  <animate attributeName="opacity" values="0;1;1;0" dur="8s" repeatCount="indefinite" begin="2s"/>
  <animate attributeName="fill" values="none;white;white;none" dur="8s" repeatCount="indefinite" begin="2s"/>
</path>
<path d="M712.407 279.89C705.94 277.435 696.477 279.137 691.271 283.696C686.067 288.253 687.091 293.94 693.558 296.396C697.687 297.964 703.037 297.831 707.723 296.346L687.322 314.211L712.671 323.837C711.121 321.141 711.892 317.776 715.216 314.865C720.42 310.308 729.884 308.601 736.354 311.058C742.821 313.513 743.843 319.202 738.639 323.759C735.315 326.67 730.259 328.408 725.352 328.652L750.704 338.278L771.105 320.413C766.419 321.898 761.072 322.032 756.942 320.464C750.475 318.008 749.453 312.322 754.657 307.765C759.863 303.206 769.324 301.502 775.791 303.958C779.921 305.526 781.822 308.41 781.308 311.479L801.709 293.614L776.357 283.987C777.907 286.683 777.134 290.05 773.811 292.96C768.605 297.519 759.142 299.222 752.675 296.766C746.205 294.31 745.182 288.625 750.388 284.066C753.711 281.156 758.769 279.416 763.677 279.172L738.327 269.547L717.926 287.412C718.44 284.343 716.537 281.458 712.407 279.89Z" stroke="url(#paint27_linear_264_1882)" stroke-width="3.84748" stroke-miterlimit="10" stroke-linecap="round" stroke-linejoin="round" fill="none">
  <animate attributeName="opacity" values="0;1;1;0" dur="8s" repeatCount="indefinite" begin="3s"/>
  <animate attributeName="fill" values="none;white;white;none" dur="8s" repeatCount="indefinite" begin="3s"/>
</path>
<path d="M651.832 290.799C657.037 286.242 666.501 284.535 672.97 286.991C679.44 289.448 680.462 295.136 675.258 299.694C671.934 302.604 666.876 304.341 661.971 304.586L687.323 314.212L707.724 296.347C703.038 297.832 697.688 297.965 693.558 296.397C687.091 293.941 686.067 288.254 691.272 283.697C696.478 279.138 705.941 277.436 712.408 279.891C716.538 281.459 718.441 284.344 717.927 287.413L738.328 269.548L712.976 259.922C717.88 259.678 722.94 257.94 726.263 255.029C731.468 250.472 730.443 244.785 723.974 242.329C717.505 239.872 708.042 241.577 702.838 246.135C699.515 249.045 698.741 252.411 700.293 255.106L674.942 245.48L654.54 263.345C655.059 260.277 653.156 257.393 649.026 255.825C642.557 253.368 633.096 255.072 627.888 259.632C622.684 264.189 623.707 269.874 630.177 272.33C634.306 273.898 639.656 273.765 644.337 272.279L623.936 290.144L649.288 299.77C647.738 297.074 648.509 293.709 651.832 290.799Z" stroke="url(#paint28_linear_264_1882)" stroke-width="3.84748" stroke-miterlimit="10" stroke-linecap="round" stroke-linejoin="round" fill="none">
  <animate attributeName="opacity" values="0;1;1;0" dur="8s" repeatCount="indefinite" begin="4s"/>
  <animate attributeName="fill" values="none;white;white;none" dur="8s" repeatCount="indefinite" begin="4s"/>
</path>
</g>
</g>
<defs>
<filter id="filter0_d_264_1882" x="139.337" y="219.972" width="749.775" height="595.538" filterUnits="userSpaceOnUse" color-interpolation-filters="sRGB">
<feFlood flood-opacity="0" result="BackgroundImageFix"/>
<feColorMatrix in="SourceAlpha" type="matrix" values="0 0 0 0 0 0 0 0 0 0 0 0 0 0 0 0 0 0 127 0" result="hardAlpha"/>
<feOffset dy="9.33044"/>
<feGaussianBlur stdDeviation="4.66522"/>
<feComposite in2="hardAlpha" operator="out"/>
<feColorMatrix type="matrix" values="0 0 0 0 0.109804 0 0 0 0 0.145098 0 0 0 0 0.364706 0 0 0 1 0"/>
<feBlend mode="normal" in2="BackgroundImageFix" result="effect1_dropShadow_264_1882"/>
<feBlend mode="normal" in="SourceGraphic" in2="effect1_dropShadow_264_1882" result="shape"/>
</filter>
<filter id="filter1_d_264_1882" x="104.581" y="559.272" width="419.038" height="314.321" filterUnits="userSpaceOnUse" color-interpolation-filters="sRGB">
<feFlood flood-opacity="0" result="BackgroundImageFix"/>
<feColorMatrix in="SourceAlpha" type="matrix" values="0 0 0 0 0 0 0 0 0 0 0 0 0 0 0 0 0 0 127 0" result="hardAlpha"/>
<feOffset dx="4.66522" dy="27.9913"/>
<feGaussianBlur stdDeviation="24.3758"/>
<feComposite in2="hardAlpha" operator="out"/>
<feColorMatrix type="matrix" values="0 0 0 0 0.227451 0 0 0 0 0.25098 0 0 0 0 0.505882 0 0 0 1 0"/>
<feBlend mode="normal" in2="BackgroundImageFix" result="effect1_dropShadow_264_1882"/>
<feBlend mode="normal" in="SourceGraphic" in2="effect1_dropShadow_264_1882" result="shape"/>
</filter>
<filter id="filter2_d_264_1882" x="254.108" y="554.473" width="137.668" height="94.5476" filterUnits="userSpaceOnUse" color-interpolation-filters="sRGB">
<feFlood flood-opacity="0" result="BackgroundImageFix"/>
<feColorMatrix in="SourceAlpha" type="matrix" values="0 0 0 0 0 0 0 0 0 0 0 0 0 0 0 0 0 0 127 0" result="hardAlpha"/>
<feOffset dy="9.33044"/>
<feGaussianBlur stdDeviation="4.66522"/>
<feComposite in2="hardAlpha" operator="out"/>
<feColorMatrix type="matrix" values="0 0 0 0 0.109804 0 0 0 0 0.14902 0 0 0 0 0.364706 0 0 0 1 0"/>
<feBlend mode="normal" in2="BackgroundImageFix" result="effect1_dropShadow_264_1882"/>
<feBlend mode="normal" in="SourceGraphic" in2="effect1_dropShadow_264_1882" result="shape"/>
</filter>
<filter id="filter3_d_264_1882" x="509.902" y="329.78" width="137.67" height="94.548" filterUnits="userSpaceOnUse" color-interpolation-filters="sRGB">
<feFlood flood-opacity="0" result="BackgroundImageFix"/>
<feColorMatrix in="SourceAlpha" type="matrix" values="0 0 0 0 0 0 0 0 0 0 0 0 0 0 0 0 0 0 127 0" result="hardAlpha"/>
<feOffset dy="9.33044"/>
<feGaussianBlur stdDeviation="4.66522"/>
<feComposite in2="hardAlpha" operator="out"/>
<feColorMatrix type="matrix" values="0 0 0 0 0.109804 0 0 0 0 0.14902 0 0 0 0 0.364706 0 0 0 1 0"/>
<feBlend mode="normal" in2="BackgroundImageFix" result="effect1_dropShadow_264_1882"/>
<feBlend mode="normal" in="SourceGraphic" in2="effect1_dropShadow_264_1882" result="shape"/>
</filter>
<filter id="filter4_d_264_1882" x="514.16" y="199.212" width="419.038" height="314.321" filterUnits="userSpaceOnUse" color-interpolation-filters="sRGB">
<feFlood flood-opacity="0" result="BackgroundImageFix"/>
<feColorMatrix in="SourceAlpha" type="matrix" values="0 0 0 0 0 0 0 0 0 0 0 0 0 0 0 0 0 0 127 0" result="hardAlpha"/>
<feOffset dx="4.66522" dy="27.9913"/>
<feGaussianBlur stdDeviation="24.3758"/>
<feComposite in2="hardAlpha" operator="out"/>
<feColorMatrix type="matrix" values="0 0 0 0 0.227451 0 0 0 0 0.25098 0 0 0 0 0.505882 0 0 0 1 0"/>
<feBlend mode="normal" in2="BackgroundImageFix" result="effect1_dropShadow_264_1882"/>
<feBlend mode="normal" in="SourceGraphic" in2="effect1_dropShadow_264_1882" result="shape"/>
</filter>
<linearGradient id="paint0_linear_264_1882" x1="442.769" y1="715.161" x2="407.071" y2="809.176" gradientUnits="userSpaceOnUse">
<stop stop-color="white" stop-opacity="0.5"/>
<stop offset="0.5" stop-color="white" stop-opacity="0.5"/>
<stop offset="1" stop-color="white" stop-opacity="0.7"/>
</linearGradient>
<linearGradient id="paint1_linear_264_1882" x1="372.819" y1="710.372" x2="344.346" y2="785.358" gradientUnits="userSpaceOnUse">
<stop stop-color="white" stop-opacity="0.5"/>
<stop offset="0.5" stop-color="white" stop-opacity="0.5"/>
<stop offset="1" stop-color="white" stop-opacity="0.7"/>
</linearGradient>
<linearGradient id="paint2_linear_264_1882" x1="233.672" y1="593.505" x2="205.199" y2="668.494" gradientUnits="userSpaceOnUse">
<stop stop-color="white" stop-opacity="0.5"/>
<stop offset="0.5" stop-color="white" stop-opacity="0.5"/>
<stop offset="1" stop-color="white" stop-opacity="0.7"/>
</linearGradient>
<linearGradient id="paint3_linear_264_1882" x1="274.168" y1="651.142" x2="245.695" y2="726.131" gradientUnits="userSpaceOnUse">
<stop stop-color="white" stop-opacity="0.5"/>
<stop offset="0.5" stop-color="white" stop-opacity="0.5"/>
<stop offset="1" stop-color="white" stop-opacity="0.7"/>
</linearGradient>
<linearGradient id="paint4_linear_264_1882" x1="349.663" y1="637.548" x2="328.414" y2="693.511" gradientUnits="userSpaceOnUse">
<stop stop-color="white" stop-opacity="0.5"/>
<stop offset="0.5" stop-color="white" stop-opacity="0.5"/>
<stop offset="1" stop-color="white" stop-opacity="0.7"/>
</linearGradient>
<linearGradient id="paint5_linear_264_1882" x1="303.623" y1="598.298" x2="275.149" y2="673.287" gradientUnits="userSpaceOnUse">
<stop stop-color="white" stop-opacity="0.5"/>
<stop offset="0.5" stop-color="white" stop-opacity="0.5"/>
<stop offset="1" stop-color="white" stop-opacity="0.7"/>
</linearGradient>
<linearGradient id="paint6_linear_264_1882" x1="475.211" y1="620.357" x2="446.738" y2="695.344" gradientUnits="userSpaceOnUse">
<stop stop-color="white" stop-opacity="0.5"/>
<stop offset="0.5" stop-color="white" stop-opacity="0.5"/>
<stop offset="1" stop-color="white" stop-opacity="0.7"/>
</linearGradient>
<linearGradient id="paint7_linear_264_1882" x1="336.065" y1="503.491" x2="307.591" y2="578.479" gradientUnits="userSpaceOnUse">
<stop stop-color="white" stop-opacity="0.5"/>
<stop offset="0.5" stop-color="white" stop-opacity="0.5"/>
<stop offset="1" stop-color="white" stop-opacity="0.7"/>
</linearGradient>
<linearGradient id="paint8_linear_264_1882" x1="376.561" y1="561.128" x2="348.087" y2="636.117" gradientUnits="userSpaceOnUse">
<stop stop-color="white" stop-opacity="0.5"/>
<stop offset="0.5" stop-color="white" stop-opacity="0.5"/>
<stop offset="1" stop-color="white" stop-opacity="0.7"/>
</linearGradient>
<linearGradient id="paint9_linear_264_1882" x1="452.057" y1="547.533" x2="430.807" y2="603.496" gradientUnits="userSpaceOnUse">
<stop stop-color="white" stop-opacity="0.5"/>
<stop offset="0.5" stop-color="white" stop-opacity="0.5"/>
<stop offset="1" stop-color="white" stop-opacity="0.7"/>
</linearGradient>
<linearGradient id="paint10_linear_264_1882" x1="314.027" y1="430.188" x2="292.777" y2="486.151" gradientUnits="userSpaceOnUse">
<stop stop-color="white" stop-opacity="0.5"/>
<stop offset="0.5" stop-color="white" stop-opacity="0.5"/>
<stop offset="1" stop-color="white" stop-opacity="0.7"/>
</linearGradient>
<linearGradient id="paint11_linear_264_1882" x1="406.016" y1="508.282" x2="377.542" y2="583.271" gradientUnits="userSpaceOnUse">
<stop stop-color="white" stop-opacity="0.5"/>
<stop offset="0.5" stop-color="white" stop-opacity="0.5"/>
<stop offset="1" stop-color="white" stop-opacity="0.7"/>
</linearGradient>
<linearGradient id="paint12_linear_264_1882" x1="577.606" y1="530.343" x2="549.133" y2="605.33" gradientUnits="userSpaceOnUse">
<stop stop-color="white" stop-opacity="0.5"/>
<stop offset="0.5" stop-color="white" stop-opacity="0.5"/>
<stop offset="1" stop-color="white" stop-opacity="0.7"/>
</linearGradient>
<linearGradient id="paint13_linear_264_1882" x1="438.46" y1="413.477" x2="409.986" y2="488.465" gradientUnits="userSpaceOnUse">
<stop stop-color="white" stop-opacity="0.5"/>
<stop offset="0.5" stop-color="white" stop-opacity="0.5"/>
<stop offset="1" stop-color="white" stop-opacity="0.7"/>
</linearGradient>
<linearGradient id="paint14_linear_264_1882" x1="478.956" y1="471.113" x2="450.482" y2="546.102" gradientUnits="userSpaceOnUse">
<stop stop-color="white" stop-opacity="0.5"/>
<stop offset="0.5" stop-color="white" stop-opacity="0.5"/>
<stop offset="1" stop-color="white" stop-opacity="0.7"/>
</linearGradient>
<linearGradient id="paint15_linear_264_1882" x1="554.452" y1="457.518" x2="533.202" y2="513.481" gradientUnits="userSpaceOnUse">
<stop stop-color="white" stop-opacity="0.5"/>
<stop offset="0.5" stop-color="white" stop-opacity="0.5"/>
<stop offset="1" stop-color="white" stop-opacity="0.7"/>
</linearGradient>
<linearGradient id="paint16_linear_264_1882" x1="508.411" y1="418.268" x2="479.937" y2="493.257" gradientUnits="userSpaceOnUse">
<stop stop-color="white" stop-opacity="0.5"/>
<stop offset="0.5" stop-color="white" stop-opacity="0.5"/>
<stop offset="1" stop-color="white" stop-opacity="0.7"/>
</linearGradient>
<linearGradient id="paint17_linear_264_1882" x1="749.953" y1="445.116" x2="714.255" y2="539.131" gradientUnits="userSpaceOnUse">
<stop stop-color="white" stop-opacity="0.5"/>
<stop offset="0.5" stop-color="white" stop-opacity="0.5"/>
<stop offset="1" stop-color="white" stop-opacity="0.7"/>
</linearGradient>
<linearGradient id="paint18_linear_264_1882" x1="680.002" y1="440.327" x2="651.529" y2="515.314" gradientUnits="userSpaceOnUse">
<stop stop-color="white" stop-opacity="0.5"/>
<stop offset="0.5" stop-color="white" stop-opacity="0.5"/>
<stop offset="1" stop-color="white" stop-opacity="0.7"/>
</linearGradient>
<linearGradient id="paint19_linear_264_1882" x1="540.856" y1="323.46" x2="512.382" y2="398.449" gradientUnits="userSpaceOnUse">
<stop stop-color="white" stop-opacity="0.5"/>
<stop offset="0.5" stop-color="white" stop-opacity="0.5"/>
<stop offset="1" stop-color="white" stop-opacity="0.7"/>
</linearGradient>
<linearGradient id="paint20_linear_264_1882" x1="581.352" y1="381.098" x2="552.878" y2="456.086" gradientUnits="userSpaceOnUse">
<stop stop-color="white" stop-opacity="0.5"/>
<stop offset="0.5" stop-color="white" stop-opacity="0.5"/>
<stop offset="1" stop-color="white" stop-opacity="0.7"/>
</linearGradient>
<linearGradient id="paint21_linear_264_1882" x1="656.847" y1="367.504" x2="635.598" y2="423.467" gradientUnits="userSpaceOnUse">
<stop stop-color="white" stop-opacity="0.5"/>
<stop offset="0.5" stop-color="white" stop-opacity="0.5"/>
<stop offset="1" stop-color="white" stop-opacity="0.7"/>
</linearGradient>
<linearGradient id="paint22_linear_264_1882" x1="610.806" y1="328.253" x2="582.332" y2="403.242" gradientUnits="userSpaceOnUse">
<stop stop-color="white" stop-opacity="0.5"/>
<stop offset="0.5" stop-color="white" stop-opacity="0.5"/>
<stop offset="1" stop-color="white" stop-opacity="0.7"/>
</linearGradient>
<linearGradient id="paint23_linear_264_1882" x1="852.348" y1="355.101" x2="816.65" y2="449.116" gradientUnits="userSpaceOnUse">
<stop stop-color="white" stop-opacity="0.5"/>
<stop offset="0.5" stop-color="white" stop-opacity="0.5"/>
<stop offset="1" stop-color="white" stop-opacity="0.7"/>
</linearGradient>
<linearGradient id="paint24_linear_264_1882" x1="782.397" y1="350.312" x2="753.924" y2="425.298" gradientUnits="userSpaceOnUse">
<stop stop-color="white" stop-opacity="0.5"/>
<stop offset="0.5" stop-color="white" stop-opacity="0.5"/>
<stop offset="1" stop-color="white" stop-opacity="0.7"/>
</linearGradient>
<linearGradient id="paint25_linear_264_1882" x1="643.251" y1="233.445" x2="614.777" y2="308.434" gradientUnits="userSpaceOnUse">
<stop stop-color="white" stop-opacity="0.5"/>
<stop offset="0.5" stop-color="white" stop-opacity="0.5"/>
<stop offset="1" stop-color="white" stop-opacity="0.7"/>
</linearGradient>
<linearGradient id="paint26_linear_264_1882" x1="683.747" y1="291.082" x2="655.273" y2="366.071" gradientUnits="userSpaceOnUse">
<stop stop-color="white" stop-opacity="0.5"/>
<stop offset="0.5" stop-color="white" stop-opacity="0.5"/>
<stop offset="1" stop-color="white" stop-opacity="0.7"/>
</linearGradient>
<linearGradient id="paint27_linear_264_1882" x1="759.242" y1="277.488" x2="737.992" y2="333.451" gradientUnits="userSpaceOnUse">
<stop stop-color="white" stop-opacity="0.5"/>
<stop offset="0.5" stop-color="white" stop-opacity="0.5"/>
<stop offset="1" stop-color="white" stop-opacity="0.7"/>
</linearGradient>
<linearGradient id="paint28_linear_264_1882" x1="713.201" y1="238.238" x2="684.727" y2="313.227" gradientUnits="userSpaceOnUse">
<stop stop-color="white" stop-opacity="0.5"/>
<stop offset="0.5" stop-color="white" stop-opacity="0.5"/>
<stop offset="1" stop-color="white" stop-opacity="0.7"/>
</linearGradient>
</defs>
</svg>
