<svg width="537" height="1076" viewBox="0 0 537 1076" fill="none" xmlns="http://www.w3.org/2000/svg">
<g filter="url(#filter0_d_15_109)">
<g filter="url(#filter1_d_15_109)">
<path d="M389.751 833.842C382.576 837.405 376.578 846.783 376.355 854.796C376.133 862.804 381.771 866.408 388.945 862.845C393.527 860.57 397.623 855.914 400.046 850.771L399.174 882.159L427.298 868.193C423.646 872.554 421.145 878.22 421.003 883.334C420.781 891.342 426.413 894.946 433.591 891.382C440.771 887.816 446.767 878.437 446.989 870.429C447.131 865.316 444.876 862.011 441.369 861.206L469.495 847.238L470.367 815.85C467.944 820.993 463.848 825.649 459.266 827.924C452.089 831.488 446.453 827.883 446.676 819.875C446.898 811.861 452.894 802.485 460.072 798.921C464.654 796.646 468.602 797.298 470.803 800.145L471.675 768.76L443.548 782.727C447.2 778.367 449.704 772.702 449.846 767.588C450.068 759.58 444.433 755.972 437.253 759.537C430.075 763.101 424.082 772.485 423.859 780.493C423.717 785.606 425.97 788.909 429.477 789.715L401.354 803.681L400.482 835.067C398.281 832.219 394.333 831.567 389.751 833.842Z" stroke="#FAFAFA" stroke-width="2.82642" stroke-miterlimit="10" stroke-linecap="round" stroke-linejoin="round"/>
<path d="M341.262 857.922C348.437 854.359 354.075 857.958 353.853 865.966C353.63 873.979 347.632 883.362 340.457 886.925C335.875 889.201 331.929 888.538 329.726 885.692L328.854 917.081L356.978 903.115C353.326 907.475 350.825 913.142 350.683 918.256C350.461 926.263 356.096 929.866 363.271 926.303C370.448 922.739 376.447 913.358 376.669 905.351C376.811 900.237 374.559 896.931 371.051 896.126L399.175 882.16L400.047 850.771C397.624 855.914 393.528 860.57 388.946 862.846C381.772 866.409 376.134 862.804 376.356 854.796C376.578 846.783 382.577 837.405 389.752 833.842C394.334 831.567 398.282 832.22 400.483 835.067L401.355 803.681L373.231 817.647C376.739 818.453 378.991 821.756 378.849 826.869C378.627 834.877 372.628 844.26 365.451 847.825C358.276 851.388 352.64 847.782 352.863 839.774C353.005 834.66 355.506 828.997 359.158 824.636L331.034 838.603L330.162 869.988C332.587 864.844 336.681 860.198 341.262 857.922Z" stroke="#FAFAFA" stroke-width="2.82642" stroke-miterlimit="10" stroke-linecap="round" stroke-linejoin="round"/>
<path d="M141.897 944.54C141.675 952.548 147.313 956.152 154.49 952.588C161.67 949.022 167.664 939.641 167.886 931.634C168.028 926.52 165.776 923.217 162.265 922.413L190.392 908.446L191.263 877.054C188.843 882.202 184.747 886.852 180.166 889.127C172.988 892.692 167.353 889.089 167.575 881.081C167.798 873.068 173.794 863.689 180.971 860.124C185.553 857.849 189.501 858.501 191.699 861.356L192.571 829.964L164.445 843.932C167.956 844.736 170.208 848.042 170.066 853.155C169.843 861.166 163.845 870.546 156.67 874.109C149.492 877.674 143.854 874.072 144.077 866.061C144.219 860.948 146.72 855.281 150.377 850.918L122.253 864.884L120.073 943.366L148.197 929.399C144.54 933.763 142.039 939.426 141.897 944.54Z" stroke="#FAFAFA" stroke-width="2.82642" stroke-miterlimit="10" stroke-linecap="round" stroke-linejoin="round"/>
<path d="M210.719 963.735C210.941 955.724 216.937 946.345 224.114 942.781C231.292 939.217 236.93 942.818 236.707 950.829C236.565 955.942 234.061 961.607 230.41 965.968L258.536 952L259.408 920.612C261.606 923.46 265.555 924.122 270.137 921.846C277.314 918.282 283.31 908.9 283.533 900.886C283.755 892.879 278.119 889.279 270.942 892.843C266.36 895.118 262.265 899.766 259.844 904.908L260.716 873.522L232.59 887.49C236.241 883.129 238.745 877.464 238.887 872.35C239.11 864.343 233.472 860.735 226.294 864.3C219.117 867.864 213.121 877.249 212.898 885.256C212.756 890.37 215.009 893.673 218.519 894.477L190.393 908.445L189.521 939.83C191.946 934.686 196.042 930.039 200.624 927.763C207.799 924.2 213.437 927.799 213.214 935.807C212.992 943.82 206.993 953.203 199.818 956.766C195.236 959.042 191.288 958.38 189.085 955.535L188.213 986.923L216.339 972.956C212.829 972.152 210.576 968.849 210.719 963.735Z" stroke="#FAFAFA" stroke-width="2.82642" stroke-miterlimit="10" stroke-linecap="round" stroke-linejoin="round"/>
<path d="M251.289 825.205C244.114 828.768 238.115 838.148 237.893 846.159C237.67 854.166 243.308 857.771 250.483 854.208C255.065 851.933 259.161 847.282 261.586 842.132L260.714 873.524L288.838 859.557C285.327 858.753 283.075 855.45 283.217 850.337C283.44 842.329 289.436 832.944 296.613 829.38C303.788 825.817 309.426 829.424 309.203 837.432C309.061 842.545 306.56 848.209 302.906 852.571L331.032 838.603L331.904 807.212C329.479 812.362 325.386 817.011 320.804 819.286C313.629 822.849 307.994 819.244 308.216 811.236C308.439 803.226 314.435 793.846 321.609 790.283C326.191 788.008 330.137 788.662 332.34 791.513L333.212 760.122L305.086 774.09C308.596 774.894 310.849 778.199 310.707 783.313C310.484 791.324 304.485 800.704 297.311 804.267C290.133 807.831 284.498 804.229 284.72 796.218C284.862 791.104 287.364 785.438 291.018 781.076L262.894 795.042L262.022 826.434C259.819 823.582 255.87 822.929 251.289 825.205Z" stroke="#FAFAFA" stroke-width="2.82642" stroke-miterlimit="10" stroke-linecap="round" stroke-linejoin="round"/>
<path d="M212.898 885.258C213.12 877.25 219.116 867.865 226.294 864.301C233.471 860.737 239.109 864.344 238.886 872.352C238.744 877.466 236.241 883.13 232.589 887.491L260.715 873.524L261.587 842.132C259.162 847.282 255.066 851.933 250.484 854.208C243.309 857.771 237.671 854.166 237.894 846.159C238.116 838.148 244.115 828.768 251.29 825.205C255.872 822.93 259.82 823.582 262.023 826.434L262.895 795.042L234.769 809.01C238.42 804.652 240.924 798.984 241.066 793.871C241.289 785.863 235.651 782.258 228.473 785.823C221.296 789.387 215.3 798.769 215.077 806.777C214.935 811.89 217.188 815.196 220.698 815.997L192.572 829.965L191.7 861.356C189.502 858.502 185.553 857.85 180.972 860.125C173.794 863.689 167.798 873.068 167.575 881.082C167.353 889.089 172.989 892.692 180.166 889.128C184.748 886.853 188.844 882.203 191.264 877.055L190.392 908.446L218.518 894.479C215.008 893.675 212.756 890.372 212.898 885.258Z" stroke="#FAFAFA" stroke-width="2.82642" stroke-miterlimit="10" stroke-linecap="round" stroke-linejoin="round"/>
</g>
<g filter="url(#filter2_d_15_109)">
<path d="M345.339 700.095C352.514 696.532 358.152 700.131 357.93 708.139C357.707 716.152 351.708 725.536 344.534 729.099C339.952 731.374 336.006 730.711 333.803 727.866L332.931 759.254L361.055 745.288C357.403 749.648 354.902 755.315 354.76 760.429C354.537 768.436 360.173 772.039 367.348 768.476C374.525 764.912 380.524 755.532 380.746 747.524C380.888 742.41 378.636 739.104 375.128 738.299L403.252 724.333L404.124 692.944C401.701 698.087 397.605 702.743 393.023 705.019C385.848 708.582 380.21 704.977 380.433 696.97C380.655 688.956 386.654 679.579 393.829 676.016C398.411 673.74 402.359 674.393 404.56 677.24L405.432 645.854L377.308 659.82C380.816 660.626 383.068 663.929 382.926 669.042C382.704 677.05 376.705 686.433 369.527 689.998C362.353 693.561 356.717 689.955 356.94 681.947C357.082 676.834 359.583 671.17 363.234 666.809L335.111 680.776L334.239 712.161C336.664 707.017 340.757 702.371 345.339 700.095Z" stroke="#FAFAFA" stroke-width="2.82642" stroke-miterlimit="10" stroke-linecap="round" stroke-linejoin="round"/>
<path d="M145.974 786.713C145.751 794.72 151.39 798.325 158.567 794.761C165.747 791.195 171.74 781.814 171.963 773.807C172.105 768.693 169.853 765.39 166.342 764.586L194.468 750.618L195.34 719.227C192.92 724.375 188.824 729.025 184.242 731.3C177.065 734.864 171.429 731.262 171.652 723.254C171.874 715.24 177.871 705.861 185.048 702.297C189.63 700.022 193.578 700.674 195.776 703.528L196.648 672.137L168.522 686.105C172.032 686.909 174.285 690.214 174.143 695.328C173.92 703.339 167.921 712.719 160.747 716.282C153.569 719.846 147.931 716.245 148.154 708.234C148.296 703.121 150.797 697.454 154.454 693.091L126.33 707.057L124.15 785.538L152.274 771.572C148.617 775.935 146.116 781.599 145.974 786.713Z" stroke="#FAFAFA" stroke-width="2.82642" stroke-miterlimit="10" stroke-linecap="round" stroke-linejoin="round"/>
<g filter="url(#filter3_d_15_109)">
<path d="M214.795 805.908C215.018 797.898 221.014 788.519 228.191 784.954C235.369 781.39 241.007 784.992 240.784 793.002C240.642 798.116 238.138 803.781 234.487 808.141L262.613 794.174L263.485 762.785C265.683 765.634 269.632 766.295 274.214 764.02C281.391 760.455 287.387 751.073 287.61 743.06C287.832 735.052 282.196 731.452 275.019 735.017C270.437 737.292 266.341 741.939 263.921 747.081L264.793 715.695L236.667 729.663C240.318 725.302 242.822 719.637 242.964 714.524C243.187 706.516 237.549 702.909 230.371 706.473C223.194 710.037 217.198 719.422 216.975 727.43C216.833 732.544 219.085 735.846 222.596 736.651L194.47 750.618L193.598 782.004C196.023 776.859 200.119 772.212 204.701 769.937C211.876 766.374 217.514 769.972 217.291 777.98C217.069 785.993 211.07 795.377 203.895 798.94C199.313 801.215 195.365 800.554 193.162 797.708L192.29 829.097L220.416 815.129C216.906 814.325 214.653 811.022 214.795 805.908Z" stroke="#FAFAFA" stroke-width="2.82642" stroke-miterlimit="10" stroke-linecap="round" stroke-linejoin="round" shape-rendering="crispEdges"/>
</g>
<path d="M255.365 667.377C248.191 670.94 242.192 680.32 241.969 688.331C241.747 696.338 247.385 699.943 254.56 696.38C259.142 694.104 263.237 689.454 265.663 684.304L264.791 715.695L292.915 701.729C289.404 700.925 287.152 697.622 287.294 692.508C287.516 684.501 293.513 675.116 300.69 671.551C307.865 667.988 313.503 671.596 313.28 679.603C313.138 684.717 310.637 690.381 306.983 694.743L335.109 680.775L335.981 649.384C333.556 654.534 329.463 659.183 324.881 661.458C317.706 665.021 312.07 661.415 312.293 653.408C312.515 645.397 318.511 636.018 325.686 632.455C330.268 630.18 334.214 630.834 336.417 633.685L337.289 602.294L309.163 616.261C312.673 617.065 314.926 620.371 314.783 625.485C314.561 633.496 308.562 642.876 301.388 646.439C294.21 650.003 288.575 646.4 288.797 638.39C288.939 633.276 291.441 627.61 295.095 623.248L266.971 637.214L266.099 668.605C263.896 665.754 259.947 665.101 255.365 667.377Z" stroke="#FAFAFA" stroke-width="2.82642" stroke-miterlimit="10" stroke-linecap="round" stroke-linejoin="round"/>
<path d="M47.0552 692.334C39.8805 695.897 33.8818 705.277 33.6593 713.288C33.4369 721.296 39.0749 724.9 46.2497 721.337C50.8315 719.062 54.9273 714.412 57.3528 709.261L56.4809 740.653L84.6046 726.687C81.0941 725.882 78.8418 722.58 78.9839 717.466C79.2063 709.458 85.2026 700.073 92.3799 696.509C99.5547 692.946 105.193 696.553 104.97 704.561C104.828 709.675 102.327 715.338 98.6729 719.7L126.799 705.733L127.671 674.341C125.246 679.492 121.152 684.14 116.571 686.416C109.396 689.979 103.76 686.373 103.983 678.365C104.205 670.355 110.201 660.976 117.376 657.413C121.958 655.137 125.904 655.791 128.107 658.643L128.979 627.251L100.853 641.219C104.363 642.023 106.615 645.329 106.473 650.443C106.251 658.453 100.252 667.833 93.0774 671.396C85.9001 674.961 80.2645 671.358 80.487 663.347C80.6291 658.234 83.1305 652.567 86.7844 648.205L58.6607 662.171L57.7888 693.563C55.5856 690.711 51.6371 690.059 47.0552 692.334Z" stroke="#FAFAFA" stroke-width="2.82642" stroke-miterlimit="10" stroke-linecap="round" stroke-linejoin="round"/>
<path d="M216.974 727.43C217.197 719.422 223.193 710.037 230.37 706.473C237.548 702.908 243.186 706.516 242.963 714.523C242.821 719.637 240.317 725.302 236.666 729.663L264.792 715.695L265.664 684.304C263.239 689.454 259.143 694.104 254.561 696.379C247.386 699.942 241.748 696.338 241.971 688.33C242.193 680.32 248.192 670.939 255.367 667.376C259.948 665.101 263.897 665.754 266.1 668.605L266.972 637.214L238.846 651.181C242.497 646.824 245.001 641.156 245.143 636.042C245.366 628.034 239.728 624.43 232.55 627.994C225.373 631.558 219.377 640.94 219.154 648.948C219.012 654.062 221.264 657.368 224.775 658.169L196.649 672.136L195.777 703.528C193.579 700.674 189.63 700.021 185.048 702.296C177.871 705.861 171.875 715.24 171.652 723.253C171.43 731.261 177.065 734.864 184.243 731.3C188.825 729.024 192.92 724.374 195.341 719.226L194.469 750.618L222.595 736.65C219.085 735.846 216.832 732.543 216.974 727.43Z" stroke="#FAFAFA" stroke-width="2.82642" stroke-miterlimit="10" stroke-linecap="round" stroke-linejoin="round"/>
</g>
<g filter="url(#filter4_d_15_109)">
<path d="M349.418 542.267C356.593 538.704 362.231 542.303 362.009 550.311C361.786 558.324 355.788 567.707 348.613 571.27C344.031 573.546 340.085 572.883 337.882 570.037L337.01 601.426L365.134 587.46C361.482 591.82 358.981 597.487 358.839 602.6C358.617 610.608 364.252 614.211 371.427 610.648C378.604 607.084 384.603 597.703 384.825 589.696C384.967 584.582 382.715 581.276 379.207 580.471L407.331 566.504L408.203 535.116C405.78 540.259 401.684 544.915 397.102 547.19C389.927 550.753 384.289 547.149 384.512 539.141C384.734 531.128 390.733 521.75 397.908 518.187C402.49 515.912 406.438 516.564 408.639 519.412L409.511 488.026L381.387 501.992C384.895 502.798 387.147 506.101 387.005 511.214C386.783 519.222 380.784 528.605 373.607 532.169C366.432 535.732 360.796 532.127 361.019 524.119C361.161 519.005 363.662 513.342 367.313 508.981L339.19 522.947L338.318 554.333C340.743 549.189 344.836 544.543 349.418 542.267Z" stroke="#FAFAFA" stroke-width="2.82642" stroke-miterlimit="10" stroke-linecap="round" stroke-linejoin="round"/>
<path d="M150.053 628.884C149.831 636.892 155.469 640.497 162.646 636.932C169.826 633.367 175.82 623.986 176.042 615.978C176.184 610.865 173.932 607.562 170.422 606.758L198.548 592.79L199.42 561.399C196.999 566.546 192.904 571.196 188.322 573.472C181.144 577.036 175.509 573.433 175.731 565.426C175.954 557.412 181.95 548.033 189.127 544.469C193.709 542.193 197.658 542.846 199.856 545.7L200.728 514.309L172.601 528.276C176.112 529.08 178.364 532.386 178.222 537.5C178 545.51 172.001 554.891 164.826 558.454C157.649 562.018 152.011 558.417 152.233 550.406C152.375 545.292 154.877 539.626 158.533 535.263L130.409 549.229L128.23 627.71L156.353 613.744C152.697 618.107 150.195 623.771 150.053 628.884Z" stroke="#FAFAFA" stroke-width="2.82642" stroke-miterlimit="10" stroke-linecap="round" stroke-linejoin="round"/>
<path d="M218.874 648.08C219.097 640.069 225.093 630.69 232.27 627.126C239.448 623.561 245.086 627.163 244.863 635.174C244.721 640.287 242.217 645.952 238.566 650.313L266.692 636.345L267.564 604.957C269.762 607.805 273.71 608.466 278.292 606.191C285.47 602.627 291.466 593.245 291.688 585.231C291.911 577.224 286.275 573.624 279.098 577.188C274.516 579.463 270.42 584.111 268 589.252L268.872 557.867L240.746 571.834C244.397 567.474 246.901 561.809 247.043 556.695C247.265 548.687 241.627 545.08 234.45 548.644C227.273 552.209 221.276 561.594 221.054 569.601C220.912 574.715 223.164 578.018 226.675 578.822L198.548 592.79L197.677 624.175C200.102 619.031 204.198 614.383 208.78 612.108C215.954 608.545 221.593 612.144 221.37 620.151C221.148 628.165 215.149 637.548 207.974 641.111C203.392 643.386 199.444 642.725 197.241 639.879L196.369 671.268L224.495 657.3C220.985 656.496 218.732 653.193 218.874 648.08Z" stroke="#FAFAFA" stroke-width="2.82642" stroke-miterlimit="10" stroke-linecap="round" stroke-linejoin="round"/>
<path d="M259.444 509.548C252.27 513.111 246.271 522.491 246.048 530.502C245.826 538.51 251.464 542.114 258.639 538.551C263.221 536.276 267.316 531.626 269.742 526.475L268.87 557.867L296.994 543.9C293.483 543.096 291.231 539.793 291.373 534.68C291.595 526.672 297.592 517.287 304.769 513.723C311.944 510.16 317.582 513.767 317.359 521.775C317.217 526.889 314.716 532.552 311.062 536.914L339.188 522.947L340.06 491.555C337.635 496.705 333.542 501.354 328.96 503.63C321.785 507.193 316.15 503.587 316.372 495.579C316.594 487.569 322.591 478.19 329.765 474.627C334.347 472.351 338.293 473.005 340.496 475.857L341.368 444.465L313.242 458.433C316.752 459.237 319.005 462.543 318.863 467.656C318.64 475.667 312.641 485.047 305.467 488.61C298.289 492.175 292.654 488.572 292.876 480.561C293.018 475.447 295.52 469.781 299.174 465.419L271.05 479.385L270.178 510.777C267.975 507.925 264.026 507.273 259.444 509.548Z" stroke="#FAFAFA" stroke-width="2.82642" stroke-miterlimit="10" stroke-linecap="round" stroke-linejoin="round"/>
<path d="M221.054 569.601C221.276 561.593 227.272 552.208 234.45 548.644C241.627 545.08 247.265 548.687 247.043 556.695C246.901 561.809 244.397 567.473 240.745 571.834L268.872 557.867L269.744 526.475C267.318 531.625 263.222 536.275 258.64 538.551C251.466 542.114 245.828 538.509 246.05 530.502C246.273 522.491 252.271 513.111 259.446 509.548C264.028 507.272 267.976 507.925 270.18 510.777L271.052 479.385L242.925 493.353C246.577 488.995 249.081 483.327 249.223 478.213C249.445 470.206 243.807 466.601 236.63 470.166C229.452 473.73 223.456 483.112 223.234 491.12C223.092 496.233 225.344 499.539 228.854 500.34L200.728 514.308L199.856 545.699C197.658 542.845 193.71 542.193 189.128 544.468C181.95 548.032 175.954 557.411 175.732 565.425C175.509 573.432 181.145 577.035 188.322 573.471C192.904 571.196 197 566.545 199.42 561.398L198.548 592.789L226.675 578.822C223.164 578.018 220.912 574.715 221.054 569.601Z" stroke="#FAFAFA" stroke-width="2.82642" stroke-miterlimit="10" stroke-linecap="round" stroke-linejoin="round"/>
</g>
<g filter="url(#filter5_d_15_109)">
<path d="M401.986 360.356C394.811 363.919 388.813 373.297 388.59 381.31C388.368 389.318 394.006 392.922 401.18 389.359C405.762 387.084 409.858 382.428 412.281 377.285L411.409 408.673L439.533 394.707C435.881 399.068 433.38 404.734 433.238 409.848C433.016 417.856 438.648 421.46 445.826 417.895C453.006 414.33 459.002 404.951 459.224 396.943C459.366 391.829 457.111 388.525 453.604 387.719L481.73 373.752L482.602 342.363C480.179 347.507 476.083 352.162 471.501 354.438C464.324 358.002 458.688 354.396 458.911 346.389C459.133 338.375 465.129 328.999 472.307 325.435C476.889 323.159 480.837 323.812 483.038 326.659L483.91 295.273L455.783 309.241C459.435 304.88 461.939 299.215 462.081 294.102C462.303 286.094 456.668 282.485 449.488 286.051C442.31 289.615 436.317 298.999 436.094 307.007C435.952 312.12 438.205 315.423 441.712 316.229L413.589 330.195L412.717 361.58C410.516 358.733 406.568 358.081 401.986 360.356Z" stroke="#FAFAFA" stroke-width="2.82642" stroke-miterlimit="10" stroke-linecap="round" stroke-linejoin="round"/>
<path d="M353.497 384.436C360.672 380.873 366.31 384.472 366.088 392.48C365.865 400.493 359.866 409.876 352.692 413.439C348.11 415.715 344.164 415.052 341.961 412.207L341.089 443.595L369.213 429.629C365.561 433.989 363.06 439.656 362.918 444.77C362.695 452.777 368.331 456.38 375.506 452.817C382.683 449.253 388.682 439.872 388.904 431.865C389.046 426.751 386.794 423.445 383.286 422.64L411.41 408.674L412.282 377.285C409.859 382.428 405.763 387.084 401.181 389.36C394.006 392.923 388.368 389.318 388.591 381.31C388.813 373.297 394.812 363.92 401.987 360.357C406.569 358.081 410.517 358.734 412.718 361.581L413.59 330.195L385.466 344.161C388.974 344.967 391.226 348.27 391.084 353.383C390.862 361.391 384.863 370.774 377.685 374.339C370.511 377.902 364.875 374.296 365.098 366.288C365.24 361.175 367.741 355.511 371.392 351.15L343.269 365.117L342.397 396.502C344.822 391.358 348.915 386.712 353.497 384.436Z" stroke="#FAFAFA" stroke-width="2.82642" stroke-miterlimit="10" stroke-linecap="round" stroke-linejoin="round"/>
<path d="M154.132 471.053C153.909 479.061 159.547 482.665 166.725 479.101C173.905 475.536 179.898 466.155 180.121 458.147C180.263 453.034 178.01 449.731 174.5 448.927L202.626 434.959L203.498 403.568C201.078 408.715 196.982 413.365 192.4 415.641C185.223 419.205 179.587 415.602 179.81 407.595C180.032 399.581 186.028 390.202 193.206 386.638C197.788 384.362 201.736 385.015 203.934 387.869L204.806 356.478L176.68 370.445C180.19 371.249 182.442 374.555 182.3 379.669C182.078 387.679 176.079 397.06 168.904 400.623C161.727 404.187 156.089 400.585 156.311 392.575C156.454 387.461 158.955 381.795 162.611 377.431L134.488 391.398L132.308 469.879L160.432 455.913C156.775 460.276 154.274 465.94 154.132 471.053Z" stroke="#FAFAFA" stroke-width="2.82642" stroke-miterlimit="10" stroke-linecap="round" stroke-linejoin="round"/>
<path d="M222.953 490.249C223.176 482.238 229.172 472.859 236.349 469.295C243.527 465.731 249.165 469.332 248.942 477.343C248.8 482.457 246.296 488.122 242.645 492.482L270.771 478.515L271.643 447.126C273.841 449.975 277.79 450.636 282.371 448.36C289.549 444.796 295.545 435.414 295.768 427.401C295.99 419.393 290.354 415.793 283.177 419.357C278.595 421.633 274.499 426.28 272.079 431.422L272.951 400.036L244.825 414.004C248.476 409.643 250.98 403.978 251.122 398.864C251.344 390.857 245.706 387.249 238.529 390.814C231.352 394.378 225.356 403.763 225.133 411.771C224.991 416.884 227.243 420.187 230.754 420.991L202.628 434.959L201.756 466.344C204.181 461.2 208.277 456.553 212.859 454.277C220.033 450.714 225.672 454.313 225.449 462.321C225.227 470.334 219.228 479.717 212.053 483.28C207.471 485.556 203.523 484.895 201.32 482.049L200.448 513.437L228.574 499.47C225.064 498.666 222.811 495.363 222.953 490.249Z" stroke="#FAFAFA" stroke-width="2.82642" stroke-miterlimit="10" stroke-linecap="round" stroke-linejoin="round"/>
<path d="M263.523 351.719C256.349 355.282 250.35 364.662 250.128 372.673C249.905 380.681 255.543 384.285 262.718 380.722C267.3 378.447 271.396 373.797 273.821 368.646L272.949 400.038L301.073 386.071C297.562 385.267 295.31 381.964 295.452 376.851C295.675 368.843 301.671 359.458 308.848 355.894C316.023 352.331 321.661 355.938 321.438 363.946C321.296 369.06 318.795 374.723 315.141 379.085L343.267 365.118L344.139 333.726C341.714 338.876 337.621 343.525 333.039 345.801C325.864 349.364 320.229 345.758 320.451 337.75C320.674 329.74 326.67 320.361 333.844 316.798C338.426 314.522 342.372 315.176 344.575 318.028L345.447 286.636L317.321 300.604C320.831 301.408 323.084 304.714 322.942 309.827C322.719 317.838 316.72 327.218 309.546 330.781C302.368 334.346 296.733 330.743 296.955 322.732C297.097 317.618 299.599 311.952 303.253 307.59L275.129 321.556L274.257 352.948C272.054 350.096 268.105 349.444 263.523 351.719Z" stroke="#FAFAFA" stroke-width="2.82642" stroke-miterlimit="10" stroke-linecap="round" stroke-linejoin="round"/>
<g filter="url(#filter6_d_15_109)">
<path d="M225.132 411.772C225.355 403.765 231.351 394.38 238.528 390.815C245.706 387.251 251.344 390.858 251.121 398.866C250.979 403.98 248.475 409.645 244.824 414.005L272.95 400.038L273.822 368.646C271.397 373.797 267.301 378.447 262.719 380.722C255.544 384.285 249.906 380.681 250.129 372.673C250.351 364.662 256.35 355.282 263.525 351.719C268.106 349.444 272.055 350.096 274.258 352.948L275.13 321.556L247.004 335.524C250.655 331.166 253.159 325.498 253.301 320.385C253.523 312.377 247.885 308.773 240.708 312.337C233.531 315.901 227.535 325.283 227.312 333.291C227.17 338.405 229.422 341.71 232.933 342.512L204.807 356.479L203.935 387.87C201.737 385.016 197.788 384.364 193.206 386.639C186.029 390.203 180.033 399.583 179.81 407.596C179.588 415.604 185.223 419.206 192.401 415.642C196.983 413.367 201.078 408.717 203.499 403.569L202.627 434.96L230.753 420.993C227.243 420.189 224.99 416.886 225.132 411.772Z" stroke="#FAFAFA" stroke-width="2.82642" stroke-miterlimit="10" stroke-linecap="round" stroke-linejoin="round" shape-rendering="crispEdges"/>
</g>
</g>
<g filter="url(#filter7_d_15_109)">
<path d="M406.064 202.527C398.889 206.09 392.89 215.468 392.668 223.481C392.445 231.489 398.083 235.093 405.258 231.53C409.84 229.255 413.936 224.599 416.359 219.456L415.487 250.845L443.61 236.878C439.959 241.239 437.458 246.905 437.316 252.019C437.093 260.027 442.726 263.631 449.904 260.067C457.084 256.501 463.08 247.122 463.302 239.114C463.444 234.001 461.189 230.696 457.681 229.891L485.808 215.923L486.679 184.535C484.257 189.678 480.161 194.334 475.579 196.609C468.402 200.173 462.766 196.568 462.989 188.56C463.211 180.547 469.207 171.17 476.385 167.606C480.966 165.331 484.915 165.983 487.116 168.83L487.987 137.445L459.861 151.412C463.512 147.052 466.016 141.387 466.158 136.273C466.381 128.265 460.746 124.657 453.566 128.222C446.388 131.787 440.395 141.17 440.172 149.178C440.03 154.292 442.282 157.594 445.79 158.4L417.667 172.366L416.795 203.752C414.594 200.905 410.645 200.252 406.064 202.527Z" stroke="#FAFAFA" stroke-width="2.82642" stroke-miterlimit="10" stroke-linecap="round" stroke-linejoin="round"/>
<path d="M357.575 226.607C364.75 223.044 370.388 226.643 370.166 234.65C369.943 242.664 363.944 252.047 356.77 255.61C352.188 257.886 348.242 257.223 346.039 254.377L345.167 285.766L373.29 271.8C369.639 276.16 367.138 281.827 366.996 286.94C366.773 294.948 372.409 298.551 379.584 294.988C386.761 291.424 392.76 282.043 392.982 274.036C393.124 268.922 390.872 265.616 387.364 264.811L415.488 250.844L416.36 219.456C413.937 224.599 409.841 229.255 405.259 231.53C398.084 235.093 392.446 231.489 392.669 223.481C392.891 215.468 398.89 206.09 406.065 202.527C410.646 200.252 414.595 200.904 416.796 203.752L417.667 172.366L389.544 186.332C393.052 187.138 395.304 190.44 395.162 195.554C394.939 203.562 388.941 212.945 381.763 216.509C374.589 220.072 368.953 216.467 369.176 208.459C369.318 203.345 371.819 197.682 375.47 193.321L347.347 207.287L346.475 238.673C348.9 233.528 352.993 228.883 357.575 226.607Z" stroke="#FAFAFA" stroke-width="2.82642" stroke-miterlimit="10" stroke-linecap="round" stroke-linejoin="round"/>
<path d="M158.21 313.225C157.987 321.232 163.625 324.837 170.803 321.272C177.983 317.707 183.976 308.326 184.199 300.319C184.341 295.205 182.088 291.902 178.578 291.098L206.704 277.13L207.576 245.739C205.156 250.887 201.06 255.537 196.478 257.812C189.301 261.376 183.665 257.773 183.888 249.766C184.11 241.752 190.106 232.373 197.284 228.809C201.866 226.534 205.814 227.186 208.012 230.04L208.884 198.649L180.758 212.616C184.268 213.42 186.52 216.726 186.378 221.84C186.156 229.851 180.157 239.231 172.982 242.794C165.805 246.358 160.167 242.757 160.389 234.746C160.532 229.632 163.033 223.966 166.689 219.603L138.566 233.569L136.386 312.05L164.51 298.084C160.853 302.447 158.352 308.111 158.21 313.225Z" stroke="#FAFAFA" stroke-width="2.82642" stroke-miterlimit="10" stroke-linecap="round" stroke-linejoin="round"/>
<path d="M227.031 332.42C227.254 324.409 233.25 315.03 240.427 311.466C247.604 307.902 253.243 311.503 253.02 319.514C252.878 324.628 250.374 330.292 246.723 334.653L274.849 320.686L275.721 289.297C277.919 292.145 281.867 292.807 286.449 290.531C293.627 286.967 299.623 277.585 299.845 269.572C300.068 261.564 294.432 257.964 287.255 261.528C282.673 263.804 278.577 268.451 276.157 273.593L277.029 242.207L248.903 256.175C252.554 251.814 255.058 246.149 255.2 241.035C255.422 233.028 249.784 229.42 242.607 232.985C235.43 236.549 229.433 245.934 229.211 253.941C229.069 259.055 231.321 262.358 234.832 263.162L206.705 277.13L205.834 308.515C208.259 303.371 212.355 298.724 216.937 296.448C224.111 292.885 229.749 296.484 229.527 304.492C229.304 312.505 223.306 321.888 216.131 325.451C211.549 327.727 207.601 327.066 205.397 324.22L204.526 355.608L232.652 341.641C229.141 340.837 226.889 337.534 227.031 332.42Z" stroke="#FAFAFA" stroke-width="2.82642" stroke-miterlimit="10" stroke-linecap="round" stroke-linejoin="round"/>
<path d="M267.601 193.89C260.426 197.453 254.427 206.833 254.205 214.844C253.983 222.851 259.621 226.456 266.795 222.893C271.377 220.617 275.473 215.967 277.899 210.817L277.027 242.208L305.15 228.242C301.64 227.438 299.388 224.135 299.53 219.021C299.752 211.014 305.748 201.629 312.926 198.065C320.1 194.502 325.738 198.109 325.516 206.117C325.374 211.23 322.873 216.894 319.219 221.256L347.345 207.288L348.217 175.897C345.791 181.047 341.698 185.696 337.116 187.971C329.942 191.534 324.306 187.929 324.528 179.921C324.751 171.91 330.747 162.531 337.922 158.968C342.504 156.693 346.45 157.347 348.653 160.198L349.525 128.807L321.398 142.775C324.909 143.579 327.161 146.884 327.019 151.998C326.797 160.009 320.798 169.389 313.623 172.952C306.446 176.516 300.81 172.914 301.033 164.903C301.175 159.789 303.676 154.123 307.33 149.761L279.206 163.727L278.335 195.118C276.131 192.267 272.183 191.614 267.601 193.89Z" stroke="#FAFAFA" stroke-width="2.82642" stroke-miterlimit="10" stroke-linecap="round" stroke-linejoin="round"/>
<path d="M229.21 253.943C229.433 245.935 235.429 236.55 242.606 232.986C249.784 229.422 255.422 233.029 255.199 241.037C255.057 246.151 252.553 251.815 248.902 256.176L277.028 242.209L277.9 210.817C275.475 215.967 271.379 220.618 266.797 222.893C259.622 226.456 253.984 222.851 254.207 214.844C254.429 206.833 260.428 197.453 267.602 193.89C272.184 191.614 276.133 192.267 278.336 195.119L279.208 163.727L251.082 177.695C254.733 173.337 257.237 167.669 257.379 162.555C257.601 154.548 251.963 150.943 244.786 154.508C237.609 158.072 231.612 167.454 231.39 175.462C231.248 180.575 233.5 183.881 237.011 184.682L208.884 198.65L208.013 230.041C205.815 227.187 201.866 226.535 197.284 228.81C190.107 232.374 184.111 241.753 183.888 249.767C183.666 257.774 189.301 261.377 196.479 257.813C201.06 255.538 205.156 250.887 207.577 245.74L206.705 277.131L234.831 263.164C231.321 262.36 229.068 259.057 229.21 253.943Z" stroke="#FAFAFA" stroke-width="2.82642" stroke-miterlimit="10" stroke-linecap="round" stroke-linejoin="round"/>
</g>
</g>
<defs>
<filter id="filter0_d_15_109" x="25.5322" y="125.301" width="470.576" height="876.878" filterUnits="userSpaceOnUse" color-interpolation-filters="sRGB">
<feFlood flood-opacity="0" result="BackgroundImageFix"/>
<feColorMatrix in="SourceAlpha" type="matrix" values="0 0 0 0 0 0 0 0 0 0 0 0 0 0 0 0 0 0 127 0" result="hardAlpha"/>
<feOffset dy="6.8543"/>
<feGaussianBlur stdDeviation="3.42715"/>
<feComposite in2="hardAlpha" operator="out"/>
<feColorMatrix type="matrix" values="0 0 0 0 0.109804 0 0 0 0 0.145098 0 0 0 0 0.364706 0 0 0 1 0"/>
<feBlend mode="normal" in2="BackgroundImageFix" result="effect1_dropShadow_15_109"/>
<feBlend mode="normal" in="SourceGraphic" in2="effect1_dropShadow_15_109" result="shape"/>
</filter>
<filter id="filter1_d_15_109" x="86.4204" y="741.365" width="425.762" height="303.482" filterUnits="userSpaceOnUse" color-interpolation-filters="sRGB">
<feFlood flood-opacity="0" result="BackgroundImageFix"/>
<feColorMatrix in="SourceAlpha" type="matrix" values="0 0 0 0 0 0 0 0 0 0 0 0 0 0 0 0 0 0 127 0" result="hardAlpha"/>
<feOffset dx="3.42715" dy="20.5629"/>
<feGaussianBlur stdDeviation="17.9068"/>
<feComposite in2="hardAlpha" operator="out"/>
<feColorMatrix type="matrix" values="0 0 0 0 0.227451 0 0 0 0 0.25098 0 0 0 0 0.505882 0 0 0 1 0"/>
<feBlend mode="normal" in2="BackgroundImageFix" result="effect1_dropShadow_15_109"/>
<feBlend mode="normal" in="SourceGraphic" in2="effect1_dropShadow_15_109" result="shape"/>
</filter>
<filter id="filter2_d_15_109" x="-6.91414e-06" y="585.496" width="445.939" height="301.523" filterUnits="userSpaceOnUse" color-interpolation-filters="sRGB">
<feFlood flood-opacity="0" result="BackgroundImageFix"/>
<feColorMatrix in="SourceAlpha" type="matrix" values="0 0 0 0 0 0 0 0 0 0 0 0 0 0 0 0 0 0 127 0" result="hardAlpha"/>
<feOffset dx="3.42715" dy="20.5629"/>
<feGaussianBlur stdDeviation="17.9068"/>
<feComposite in2="hardAlpha" operator="out"/>
<feColorMatrix type="matrix" values="0 0 0 0 0.227451 0 0 0 0 0.25098 0 0 0 0 0.505882 0 0 0 1 0"/>
<feBlend mode="normal" in2="BackgroundImageFix" result="effect1_dropShadow_15_109"/>
<feBlend mode="normal" in="SourceGraphic" in2="effect1_dropShadow_15_109" result="shape"/>
</filter>
<filter id="filter3_d_15_109" x="184.169" y="703.552" width="111.567" height="140.8" filterUnits="userSpaceOnUse" color-interpolation-filters="sRGB">
<feFlood flood-opacity="0" result="BackgroundImageFix"/>
<feColorMatrix in="SourceAlpha" type="matrix" values="0 0 0 0 0 0 0 0 0 0 0 0 0 0 0 0 0 0 127 0" result="hardAlpha"/>
<feOffset dy="6.8543"/>
<feGaussianBlur stdDeviation="3.42715"/>
<feComposite in2="hardAlpha" operator="out"/>
<feColorMatrix type="matrix" values="0 0 0 0 0.109804 0 0 0 0 0.14902 0 0 0 0 0.364706 0 0 0 1 0"/>
<feBlend mode="normal" in2="BackgroundImageFix" result="effect1_dropShadow_15_109"/>
<feBlend mode="normal" in="SourceGraphic" in2="effect1_dropShadow_15_109" result="shape"/>
</filter>
<filter id="filter4_d_15_109" x="94.5767" y="427.668" width="355.441" height="301.523" filterUnits="userSpaceOnUse" color-interpolation-filters="sRGB">
<feFlood flood-opacity="0" result="BackgroundImageFix"/>
<feColorMatrix in="SourceAlpha" type="matrix" values="0 0 0 0 0 0 0 0 0 0 0 0 0 0 0 0 0 0 127 0" result="hardAlpha"/>
<feOffset dx="3.42715" dy="20.5629"/>
<feGaussianBlur stdDeviation="17.9068"/>
<feComposite in2="hardAlpha" operator="out"/>
<feColorMatrix type="matrix" values="0 0 0 0 0.227451 0 0 0 0 0.25098 0 0 0 0 0.505882 0 0 0 1 0"/>
<feBlend mode="normal" in2="BackgroundImageFix" result="effect1_dropShadow_15_109"/>
<feBlend mode="normal" in="SourceGraphic" in2="effect1_dropShadow_15_109" result="shape"/>
</filter>
<filter id="filter5_d_15_109" x="98.6551" y="267.879" width="425.762" height="303.482" filterUnits="userSpaceOnUse" color-interpolation-filters="sRGB">
<feFlood flood-opacity="0" result="BackgroundImageFix"/>
<feColorMatrix in="SourceAlpha" type="matrix" values="0 0 0 0 0 0 0 0 0 0 0 0 0 0 0 0 0 0 127 0" result="hardAlpha"/>
<feOffset dx="3.42715" dy="20.5629"/>
<feGaussianBlur stdDeviation="17.9068"/>
<feComposite in2="hardAlpha" operator="out"/>
<feColorMatrix type="matrix" values="0 0 0 0 0.227451 0 0 0 0 0.25098 0 0 0 0 0.505882 0 0 0 1 0"/>
<feBlend mode="normal" in2="BackgroundImageFix" result="effect1_dropShadow_15_109"/>
<feBlend mode="normal" in="SourceGraphic" in2="effect1_dropShadow_15_109" result="shape"/>
</filter>
<filter id="filter6_d_15_109" x="171.683" y="309.415" width="111.567" height="140.8" filterUnits="userSpaceOnUse" color-interpolation-filters="sRGB">
<feFlood flood-opacity="0" result="BackgroundImageFix"/>
<feColorMatrix in="SourceAlpha" type="matrix" values="0 0 0 0 0 0 0 0 0 0 0 0 0 0 0 0 0 0 127 0" result="hardAlpha"/>
<feOffset dy="6.8543"/>
<feGaussianBlur stdDeviation="3.42715"/>
<feComposite in2="hardAlpha" operator="out"/>
<feColorMatrix type="matrix" values="0 0 0 0 0.109804 0 0 0 0 0.14902 0 0 0 0 0.364706 0 0 0 1 0"/>
<feBlend mode="normal" in2="BackgroundImageFix" result="effect1_dropShadow_15_109"/>
<feBlend mode="normal" in="SourceGraphic" in2="effect1_dropShadow_15_109" result="shape"/>
</filter>
<filter id="filter7_d_15_109" x="102.733" y="110.05" width="425.762" height="303.482" filterUnits="userSpaceOnUse" color-interpolation-filters="sRGB">
<feFlood flood-opacity="0" result="BackgroundImageFix"/>
<feColorMatrix in="SourceAlpha" type="matrix" values="0 0 0 0 0 0 0 0 0 0 0 0 0 0 0 0 0 0 127 0" result="hardAlpha"/>
<feOffset dx="3.42715" dy="20.5629"/>
<feGaussianBlur stdDeviation="17.9068"/>
<feComposite in2="hardAlpha" operator="out"/>
<feColorMatrix type="matrix" values="0 0 0 0 0.227451 0 0 0 0 0.25098 0 0 0 0 0.505882 0 0 0 1 0"/>
<feBlend mode="normal" in2="BackgroundImageFix" result="effect1_dropShadow_15_109"/>
<feBlend mode="normal" in="SourceGraphic" in2="effect1_dropShadow_15_109" result="shape"/>
</filter>
</defs>
</svg>
